<?xml version="1.0" encoding="UTF-8"?>
<svg version="1.1" xmlns="http://www.w3.org/2000/svg" width="3688" height="874">
<path d="M0 0 C81.51 0 163.02 0 247 0 C245.37056465 3.25887069 244.11386468 5.14249567 241.8125 7.8125 C230.66465152 22.05954288 226.18073716 41.07887747 222.75 58.5 C222.59893799 59.25619629 222.44787598 60.01239258 222.29223633 60.79150391 C219.14925591 77.96178497 218.69756329 95.25485326 218.68115234 112.65917969 C218.67182898 114.95767052 218.66165683 117.25615804 218.65071106 119.55464172 C218.6236682 125.72887331 218.60833891 131.90308242 218.59528303 138.07735729 C218.5795386 144.55422193 218.55278512 151.03104142 218.5272522 157.50787354 C218.48593976 168.35761179 218.45128987 179.20735211 218.421875 190.05712891 C218.39158855 201.22153513 218.35717081 212.3859164 218.31738281 223.55029297 C218.3149013 224.24801123 218.3124198 224.94572948 218.30986309 225.66459072 C218.28823477 231.73582465 218.26629816 237.80705746 218.24433136 243.87829018 C218.15050998 269.91883178 218.07689953 295.95939019 218 322 C290.27 322 362.54 322 437 322 C436.855625 286.48375 436.71125 250.9675 436.5625 214.375 C436.51939697 203.19415527 436.47629395 192.01331055 436.43188477 180.49365234 C436.3885936 170.40034222 436.3885936 170.40034222 436.34410095 160.30703735 C436.3244402 155.83967678 436.3072933 151.37231445 436.29173279 146.90493774 C436.27170793 141.18031322 436.2472169 135.45572309 436.21969402 129.73112988 C436.21039546 127.64658467 436.20257539 125.56203212 436.19653046 123.47747493 C436.16508577 96.88858556 436.16508577 96.88858556 433.75 70.4375 C433.55821167 69.0297229 433.55821167 69.0297229 433.36254883 67.59350586 C430.03465675 44.5683511 424.04749945 19.61310915 408 2 C408 1.34 408 0.68 408 0 C489.51 0 571.02 0 655 0 C653.37056465 3.25887069 652.11386468 5.14249567 649.8125 7.8125 C638.66465152 22.05954288 634.18073716 41.07887747 630.75 58.5 C630.59893799 59.25619629 630.44787598 60.01239258 630.29223633 60.79150391 C626.9936291 78.8119831 626.70892445 96.91631228 626.73930359 115.17860413 C626.73627749 117.77937267 626.73238573 120.38014032 626.72771102 122.98090643 C626.71901334 128.60215531 626.71761375 134.22336774 626.72121429 139.84462166 C626.72655462 148.20444285 626.72039273 156.56422917 626.71213136 164.92404657 C626.69694024 180.72904136 626.69518129 196.53402005 626.69765439 212.33902062 C626.69949154 224.55036607 626.6977186 236.76170628 626.69342995 248.97305107 C626.69282753 250.73138201 626.69222633 252.48971294 626.69162634 254.24804388 C626.69071903 256.89814132 626.68981035 259.54823877 626.68889399 262.19833621 C626.68047164 286.81897448 626.67612375 311.43961078 626.68030071 336.06025028 C626.68045709 336.98723389 626.68061346 337.9142175 626.68077458 338.86929151 C626.68158028 343.56692259 626.68242606 348.26455367 626.68328788 352.96218473 C626.68345897 353.89504054 626.68363006 354.82789634 626.68380633 355.78902051 C626.68415299 357.67547942 626.68450152 359.56193834 626.68485192 361.44839725 C626.69020675 390.78877087 626.68228252 420.12911441 626.66381836 449.46948242 C626.64306599 482.48406641 626.63238188 515.49863177 626.63639385 548.51322263 C626.63678915 552.03889461 626.6371507 555.56456659 626.63749123 559.09023857 C626.63758196 559.9582561 626.63767269 560.82627362 626.63776617 561.72059471 C626.63892835 574.77972648 626.63231282 587.83883934 626.62167931 600.89796638 C626.60958558 615.76494619 626.60811607 630.63188455 626.62046947 645.49886502 C626.62706035 653.80057995 626.62555507 662.10219557 626.61188096 670.40390239 C626.60257199 676.63087111 626.60924507 682.85773258 626.62172876 689.0846936 C626.62435749 691.58254074 626.62206749 694.08039969 626.61399289 696.57823516 C626.49482135 736.23707073 630.60216168 776.46954891 655 809 C573.16 809 491.32 809 407 809 C408.98 806.69 410.96 804.38 413 802 C425.46356664 783.32756101 430.75231516 761.56630004 433.75 739.5625 C433.92341919 738.31617798 433.92341919 738.31617798 434.1003418 737.04467773 C436.34418062 718.87759086 436.15594699 700.3878684 436.20532227 682.11376953 C436.21493206 679.81498552 436.22494379 677.51620316 436.23532104 675.21742249 C436.26204089 669.05157729 436.28322577 662.88572469 436.30332303 656.71985483 C436.325389 650.24835312 436.35267556 643.77687334 436.37937927 637.3053894 C436.42340972 626.46759998 436.46428969 615.62980299 436.50268555 604.79199219 C436.5421988 593.64126709 436.58367185 582.49055203 436.62768555 571.33984375 C436.63180981 570.29407036 436.63180981 570.29407036 436.63601738 569.22717023 C436.65996012 563.16033847 436.68404882 557.0935073 436.70815182 551.02667618 C436.8112945 525.01780371 436.90487015 499.00890587 437 473 C364.73 473 292.46 473 218 473 C218.0907564 516.24125896 218.0907564 516.24125896 218.20898438 559.48242188 C218.22702968 565.33715754 218.24489292 571.19189371 218.26245117 577.04663086 C218.2657627 578.14705445 218.2657627 578.14705445 218.26914114 579.26970881 C218.30433957 591.05406505 218.3292942 602.83842124 218.35034702 614.62281028 C218.37224723 626.75140523 218.40542964 638.87993304 218.44870156 651.00847071 C218.47264118 657.80628709 218.49167934 664.60403745 218.49761391 671.40189552 C218.50373508 677.82299496 218.52398307 684.24390665 218.55427551 690.66493607 C218.56294461 692.9998525 218.56680199 695.33479358 218.56500816 697.66972542 C218.54438476 736.96213697 222.84916158 776.79888211 247 809 C165.16 809 83.32 809 -1 809 C0.98 806.69 2.96 804.38 5 802 C17.46356664 783.32756101 22.75231516 761.56630004 25.75 739.5625 C25.86561279 738.73161865 25.98122559 737.9007373 26.1003418 737.04467773 C28.40486136 718.38629348 28.14620938 699.41285807 28.12698364 680.64819336 C28.12813854 678.16175533 28.12972853 675.67531747 28.13171089 673.18887997 C28.1349931 667.82376972 28.13523375 662.45867275 28.13266373 657.09356308 C28.1288523 649.11491651 28.13082986 641.13627832 28.13387203 633.15763178 C28.13911642 618.90069352 28.13868994 604.64375975 28.13579312 590.38682106 C28.13327062 577.9098069 28.13262409 565.43279439 28.13381577 552.95578003 C28.13389215 552.12590428 28.13396854 551.29602854 28.13404724 550.44100504 C28.13435861 547.07167898 28.13467701 543.70235292 28.135007 540.33302685 C28.13806121 508.771117 28.13530015 477.20921 28.1299101 445.64730059 C28.12516503 417.64930563 28.12558968 389.65131523 28.13037109 361.65332031 C28.13573383 330.14655901 28.13784455 298.63980022 28.13475883 267.13303852 C28.13443815 263.770099 28.1341253 260.40715949 28.13381577 257.04421997 C28.13373669 256.2162697 28.13365761 255.38831942 28.13357614 254.53527974 C28.13244201 242.07070948 28.13376269 229.60614105 28.13629532 217.14157104 C28.1391628 202.95888731 28.13842228 188.77620875 28.13301457 174.59352565 C28.13009277 166.67070631 28.12986552 158.74789821 28.13366075 150.82507918 C28.13618894 144.88913956 28.13341871 138.95320968 28.12868617 133.01727116 C28.12757793 130.63128143 28.12811735 128.24529018 28.13056196 125.85930145 C28.22236224 98.07940357 28.22236224 98.07940357 25.75 70.4375 C25.62214111 69.49898193 25.49428223 68.56046387 25.36254883 67.59350586 C22.03465675 44.5683511 16.04749945 19.61310915 0 2 C0 1.34 0 0.68 0 0 Z " fill="#314528" transform="translate(1017,27)"/>
<path d="M0 0 C2.12426966 0.01175602 4.24850412 0.0182428 6.37279892 0.02360535 C27.30361514 0.0853109 47.99100743 0.66127421 68.76919174 3.38652039 C70.55389877 3.60332458 70.55389877 3.60332458 72.37466049 3.82450867 C116.76584265 9.24143265 160.17343933 20.5016943 200.76919174 39.38652039 C201.62706284 39.78451843 202.48493393 40.18251648 203.36880112 40.59257507 C228.17912243 52.23492801 250.12695349 67.4775992 270.76919174 85.38652039 C271.90807846 86.3397821 271.90807846 86.3397821 273.06997299 87.31230164 C277.51208554 91.06437728 281.33663275 95.13709847 285.10512924 99.56620789 C286.65299053 101.47775704 286.65299053 101.47775704 288.76919174 102.38652039 C288.15236365 107.22614051 286.72493323 111.49191196 284.91762924 115.99198914 C284.3152917 117.5246727 283.71325541 119.05747467 283.1114769 120.59037781 C282.79172897 121.39929474 282.47198105 122.20821167 282.14254379 123.04164124 C264.26240324 168.39567752 249.35376624 214.88677613 234.76919174 261.38652039 C231.27575538 260.2220416 231.08554416 259.67115796 229.26919174 256.63652039 C225.40801972 250.60463971 220.78727679 245.30372586 216.0958519 239.91288757 C214.91023276 238.54879283 213.73544635 237.17530012 212.56216049 235.80058289 C208.29010486 230.86286178 203.76569165 226.57713321 198.76919174 222.38652039 C197.36733627 221.15288757 197.36733627 221.15288757 195.93716049 219.89433289 C145.79974691 175.99940264 78.24187788 157.98164312 12.51528549 161.94902039 C-49.47396816 166.35789874 -109.88539409 190.66971862 -151.51987076 237.98808289 C-153.81996215 240.74331603 -156.03710262 243.54585749 -158.23080826 246.38652039 C-158.65329849 246.9272821 -159.07578873 247.46804382 -159.5110817 248.02519226 C-176.53907793 269.94142993 -188.89251168 294.97674834 -197.23080826 321.38652039 C-197.49345474 322.19991882 -197.75610123 323.01331726 -198.0267067 323.85136414 C-218.32031475 387.36609292 -219.49225304 473.58256476 -189.23080826 534.38652039 C-188.57080826 534.71652039 -187.91080826 535.04652039 -187.23080826 535.38652039 C-187.25437393 534.03010437 -187.25437393 534.03010437 -187.27841568 532.64628601 C-187.55830779 514.00570773 -187.47808492 495.8127005 -184.23080826 477.38652039 C-184.07515396 476.47531433 -183.91949966 475.56410828 -183.75912857 474.62528992 C-174.30468267 421.17275893 -146.52561985 369.85193249 -103.23080826 336.38652039 C-102.7006813 335.96934753 -102.17055435 335.55217468 -101.62436295 335.12236023 C-85.40273838 322.41714703 -67.50674514 312.6134472 -48.23080826 305.38652039 C-47.50361588 305.11114441 -46.77642349 304.83576843 -46.02719498 304.55204773 C-37.04741722 301.20806315 -27.9588036 298.70904157 -18.60580826 296.63652039 C-17.71281021 296.43776306 -16.81981216 296.23900574 -15.89975357 296.03422546 C-1.05393555 292.91167827 13.52140165 291.97678882 28.64419174 292.01152039 C29.98847748 292.01233612 29.98847748 292.01233612 31.3599205 292.01316833 C69.61912393 292.1194498 118.49053578 300.79536443 146.83169174 329.13652039 C152.01310349 334.45917578 154.06983816 337.42578471 154.00970078 344.8465271 C154.01226405 345.99580845 154.01226405 345.99580845 154.01487911 347.1683076 C154.0181812 349.74333671 154.00715856 352.31810696 153.99624252 354.89311218 C153.99567856 356.73589573 153.99599467 358.57867973 153.99712753 360.42146301 C153.99770265 365.43149532 153.98592271 370.44143236 153.97197962 375.45144248 C153.95949864 380.6845017 153.95830384 385.91756296 153.9559288 391.15063477 C153.94970628 401.06348523 153.93328503 410.97629171 153.91322982 420.88912278 C153.89089483 432.17313113 153.87988344 443.45714154 153.86983895 454.74116647 C153.84891947 477.95630885 153.8137285 501.17141216 153.76919174 524.38652039 C150.69978548 522.91537754 148.04493544 521.19375304 145.30703354 519.16435242 C86.24202604 475.41930512 9.64976921 461.7123206 -62.08285904 471.90653992 C-93.97161067 476.76874604 -133.49319596 486.72578168 -153.87680435 513.9954071 C-164.76290144 529.31067388 -167.39701633 546.45646164 -164.89828873 564.83183289 C-164.02605417 569.47296974 -162.73412487 573.91310949 -161.23080826 578.38652039 C-160.79768326 579.68782898 -160.79768326 579.68782898 -160.35580826 581.01542664 C-157.08912956 589.40087418 -150.67909982 596.26891045 -144.23080826 602.38652039 C-143.12579053 603.51068446 -142.02170113 604.63576144 -140.91830826 605.76152039 C-95.40932709 651.07601873 -31.0256121 671.66854554 32.24282455 671.56987 C94.55607322 670.86504433 155.28235203 650.85305497 201.15200424 607.81620789 C203.24980554 605.86869683 205.37228947 604.01564003 207.58169174 602.19902039 C213.69470733 596.9948944 218.49811708 590.53294925 223.45669174 584.26152039 C223.92043198 583.67564148 224.38417221 583.08976257 224.86196518 582.48612976 C227.03511162 579.71063532 229.08742812 576.93454463 230.97622299 573.95683289 C231.56790268 573.10862976 232.15958237 572.26042664 232.76919174 571.38652039 C233.42919174 571.38652039 234.08919174 571.38652039 234.76919174 571.38652039 C234.96113113 571.98870392 235.15307053 572.59088745 235.35082626 573.21131897 C256.14369509 639.82178628 256.14369509 639.82178628 280.32778549 705.24198914 C280.6147731 705.94921616 280.90176071 706.65644318 281.19744492 707.38510132 C282.54311251 710.69077557 283.90594949 713.98731808 285.30434799 717.27104187 C285.77614487 718.40485291 286.24794174 719.53866394 286.73403549 720.70683289 C287.36233261 722.18047302 287.36233261 722.18047302 288.0033226 723.68388367 C288.87732981 726.76812331 288.7986493 728.36815961 287.76919174 731.38652039 C286.54507065 733.09648132 286.54507065 733.09648132 284.99575424 734.62089539 C284.42389389 735.19033875 283.85203354 735.7597821 283.26284409 736.34648132 C282.64618881 736.93719421 282.02953354 737.5279071 281.39419174 738.13652039 C280.76077866 738.75559265 280.12736557 739.37466492 279.47475815 740.01249695 C274.9962151 744.33886197 270.35556135 748.39256855 265.46450424 752.24980164 C262.58187991 754.53501252 259.80807372 756.92558189 257.01919174 759.32402039 C250.30080761 764.92411864 243.15567644 769.71624496 235.76919174 774.38652039 C234.89834946 774.94073669 234.89834946 774.94073669 234.0099144 775.50614929 C171.30252182 815.12298993 93.23179128 833.3354728 19.45669174 833.58964539 C18.80089127 833.59247276 18.14509079 833.59530014 17.46941757 833.5982132 C13.98535413 833.61306753 10.50133047 833.62237833 7.01723862 833.62675476 C4.21371763 833.63109557 1.41051202 833.64483473 -1.39291763 833.66777039 C-84.60005244 834.33376712 -167.29916061 811.32192828 -235.23080826 762.38652039 C-235.89032486 761.91246765 -236.54984146 761.43841492 -237.22934341 760.94999695 C-247.36761054 753.6163483 -256.92637705 745.74817792 -266.23080826 737.38652039 C-266.78865005 736.88652527 -267.34649185 736.38653015 -267.92123795 735.87138367 C-274.30938077 730.12205513 -280.5117603 724.19639155 -286.60580826 718.13652039 C-287.16469742 717.58230408 -287.72358658 717.02808777 -288.29941177 716.45707703 C-327.81475898 676.78900216 -356.39586766 625.72295368 -375.23080826 573.38652039 C-375.58626724 572.40924988 -375.94172623 571.43197937 -376.3079567 570.4250946 C-393.88178746 521.65565157 -401.4474609 469.41116915 -401.48080826 417.69902039 C-401.481483 416.74620178 -401.48215775 415.79338318 -401.48285294 414.81169128 C-401.42611938 363.76845557 -393.49711698 313.82477452 -377.23080826 265.38652039 C-376.73411636 263.90466248 -376.73411636 263.90466248 -376.22739029 262.39286804 C-359.7450358 213.86660651 -333.90751337 168.97773919 -300.23080826 130.38652039 C-299.46123795 129.50351257 -298.69166763 128.62050476 -297.89877701 127.71073914 C-291.89891517 121.01299352 -285.58794113 114.61644692 -279.25510025 108.23558044 C-278.25591965 107.22835807 -277.25822385 106.21966008 -276.26218033 105.20933533 C-269.6034533 98.46535543 -262.65972161 92.28490925 -255.23080826 86.38652039 C-254.0568788 85.41007297 -252.88579174 84.43018562 -251.71908951 83.44511414 C-235.55397604 70.00858725 -217.58524389 58.59116866 -199.23080826 48.38652039 C-198.53342545 47.99335632 -197.83604263 47.60019226 -197.11752701 47.19511414 C-137.27347035 13.66087698 -68.12665117 -0.40752796 0 0 Z " fill="#324629" transform="translate(2412.2308082580566,14.613479614257813)"/>
<path d="M0 0 C215.16 0 430.32 0 652 0 C651.13043799 4.34781006 650.44768841 6.33132756 648.26171875 9.96484375 C647.69517578 10.91810547 647.12863281 11.87136719 646.54492188 12.85351562 C645.93197266 13.87123047 645.31902344 14.88894531 644.6875 15.9375 C639.97246368 23.88240829 635.37337293 31.86188497 631 40 C626.26095714 48.79654583 621.27960904 57.42896106 616.2109375 66.0390625 C612.34634338 72.62759961 608.62351093 79.27615886 605 86 C600.25981596 94.79595649 595.27963619 103.42891494 590.2109375 112.0390625 C586.34634338 118.62759961 582.62351093 125.27615886 579 132 C574.25981596 140.79595649 569.27963619 149.42891494 564.2109375 158.0390625 C560.34634338 164.62759961 556.62351093 171.27615886 553 178 C548.25981596 186.79595649 543.27963619 195.42891494 538.2109375 204.0390625 C534.34634338 210.62759961 530.62351093 217.27615886 527 224 C522.25981596 232.79595649 517.27963619 241.42891494 512.2109375 250.0390625 C508.34634338 256.62759961 504.62351093 263.27615886 501 270 C496.25981596 278.79595649 491.27963619 287.42891494 486.2109375 296.0390625 C482.34634338 302.62759961 478.62351093 309.27615886 475 316 C470.81801633 323.76015151 466.47194676 331.40330639 462 339 C456.96365702 347.55764928 452.11397396 356.19278179 447.39404297 364.9284668 C443.57847837 371.97808623 439.6352687 378.94615134 435.64013672 385.89526367 C431.71078067 392.73631456 427.84583773 399.611689 424 406.5 C419.22807986 415.04399079 414.40839831 423.55808637 409.5390625 432.046875 C405.64843038 438.84004219 401.81735795 445.66542899 398 452.5 C393.22791839 461.04390158 388.40839933 469.55808459 383.5390625 478.046875 C379.64843038 484.84004219 375.81735795 491.66542899 372 498.5 C367.22791839 507.04390158 362.40839933 515.55808459 357.5390625 524.046875 C353.64843038 530.84004219 349.81735795 537.66542899 346 544.5 C341.22791839 553.04390158 336.40839933 561.55808459 331.5390625 570.046875 C327.64843038 576.84004219 323.81735795 583.66542899 320 590.5 C315.26760266 598.97285114 310.49087528 607.41783828 305.65991211 615.83483887 C301.60265497 622.91659027 297.60784846 630.03243911 293.625 637.15625 C292.98433594 638.30125977 292.34367187 639.44626953 291.68359375 640.62597656 C290.12197332 643.41708173 288.5607833 646.20842666 287 649 C313.80124408 648.93922041 340.60239444 648.86154994 367.40353203 648.76428509 C379.85039289 648.71949897 392.29722624 648.68004565 404.74414062 648.65356445 C415.60475047 648.63044418 426.46527195 648.59689244 437.32581151 648.55129844 C443.06557744 648.52755359 448.80525689 648.50870306 454.54507065 648.50238609 C499.25674821 648.44658779 543.11855328 645.98775655 584 626 C584.99555908 625.51660156 584.99555908 625.51660156 586.01123047 625.0234375 C596.58252543 619.82366032 607.46142634 613.7221287 615.7109375 605.19921875 C618 603 618 603 621 603 C621.02332561 629.84179182 621.04097751 656.68358214 621.05181217 683.52538204 C621.05697585 695.98754655 621.06401991 708.44970476 621.07543945 720.91186523 C621.08538411 731.76961778 621.0918529 742.62736577 621.09408849 753.48512274 C621.09539597 759.2380575 621.09848417 764.99097924 621.10573006 770.74390984 C621.11248683 776.15200976 621.11461767 781.56009122 621.11310768 786.96819496 C621.11338416 788.95928421 621.11539131 790.95037404 621.11920547 792.94145966 C621.12413737 795.64739253 621.12300016 798.35325453 621.12025452 801.05918884 C621.12316736 801.85781135 621.1260802 802.65643386 621.12908131 803.47925705 C621.11412121 808.88587879 621.11412121 808.88587879 620 810 C618.59129084 810.09698038 617.17773416 810.12447391 615.76569074 810.1241985 C614.84462302 810.12644579 613.92355531 810.12869308 612.97457644 810.13100848 C611.43593882 810.12706796 611.43593882 810.12706796 609.86621761 810.12304783 C608.24111555 810.1247786 608.24111555 810.1247786 606.58318314 810.12654433 C602.90374272 810.12921961 599.22434488 810.12468138 595.54490662 810.12025452 C592.90004538 810.12069003 590.25518701 810.12152219 587.61032635 810.12284368 C581.83459889 810.12492326 576.05888171 810.12326373 570.28315544 810.11920547 C561.69476872 810.11318763 553.10638851 810.11286807 544.51800007 810.11374746 C530.07322588 810.11506356 515.62845625 810.11171163 501.1836834 810.10573006 C486.87460749 810.09981982 472.56553349 810.09596548 458.25645638 810.09487724 C457.36787683 810.0948085 456.47929728 810.09473976 455.56379108 810.09466894 C451.05143125 810.09433062 446.53907142 810.09402923 442.02671159 810.09374207 C410.03774458 810.09163978 378.04878006 810.08489719 346.05981445 810.07543945 C314.97648125 810.06626005 283.89314873 810.05917398 252.80981445 810.05493164 C251.85225614 810.05480011 250.89469783 810.05466859 249.90812259 810.05453308 C240.29222287 810.05321459 230.67632314 810.05193877 221.0604234 810.05069422 C201.4704631 810.04815778 181.88050284 810.04533652 162.2905426 810.04234314 C161.38976149 810.04220585 160.48898038 810.04206856 159.56090288 810.04192711 C99.37393422 810.03272123 39.18696694 810.01687543 -21 810 C-21.33 809.34 -21.66 808.68 -22 808 C-20.95874023 805.67529297 -20.95874023 805.67529297 -19.30859375 802.7421875 C-18.70055908 801.65381592 -18.09252441 800.56544434 -17.46606445 799.4440918 C-16.79013369 798.25424827 -16.11393872 797.06455482 -15.4375 795.875 C-14.74843929 794.64977806 -14.05988713 793.42426999 -13.37182617 792.19848633 C-8.37051627 783.31339129 -3.23542768 774.50757798 1.93334961 765.71899414 C6.31347111 758.24745931 10.49247639 750.68182533 14.61108398 743.0637207 C19.37340456 734.26828771 24.33161858 725.59190582 29.31933594 716.92285156 C32.51242187 711.3697393 35.69464922 705.81041227 38.875 700.25 C39.21494995 699.65580261 39.5548999 699.06160522 39.90515137 698.44940186 C45.22835265 689.14151758 50.48576772 679.79813024 55.71044922 670.43457031 C60.42415909 661.99866884 65.21268982 653.60685559 70.01849365 645.2232666 C74.77285769 636.92761669 79.4718684 628.60296745 84.125 620.25 C88.69584666 612.04593286 93.36594863 603.90877077 98.125 595.8125 C103.11844928 587.31408667 107.92326492 578.73460513 112.61083984 570.06420898 C117.37319659 561.26858851 122.33152805 552.59206316 127.31933594 543.92285156 C130.5124222 538.36973872 133.6944643 532.81030694 136.875 527.25 C137.21428528 526.65713196 137.55357056 526.06426392 137.90313721 525.45343018 C143.27922189 516.05620379 148.57729687 506.617453 153.84667969 497.15991211 C157.85278332 489.99190511 161.96391898 482.89148194 166.125 475.8125 C171.11844928 467.31408667 175.92326492 458.73460513 180.61083984 450.06420898 C185.37319659 441.26858851 190.33152805 432.59206316 195.31933594 423.92285156 C198.5124222 418.36973872 201.6944643 412.81030694 204.875 407.25 C205.38392792 406.36069794 205.38392792 406.36069794 205.90313721 405.45343018 C211.27922189 396.05620379 216.57729687 386.617453 221.84667969 377.15991211 C225.85278332 369.99190511 229.96391898 362.89148194 234.125 355.8125 C239.11627201 347.3177922 243.92030126 338.74270008 248.60424805 330.07519531 C252.9292678 322.08457585 257.42276167 314.1980747 261.94921875 306.3203125 C265.07754193 300.87512203 268.16589488 295.40782293 271.25 289.9375 C276.45077241 280.71744868 281.69880764 271.52494186 286.96026611 262.33944702 C291.73283965 254.00446281 296.45034721 245.64038555 301.125 237.25 C305.69590241 229.04596575 310.36586299 220.90872113 315.125 212.8125 C320.07752003 204.38558823 324.87195907 195.8917608 329.47900391 187.27075195 C332.76434361 181.15362278 336.21459358 175.14028184 339.70043945 169.13598633 C340.21061867 168.25605263 340.72079788 167.37611893 341.24643707 166.46952057 C342.49706157 164.31268622 343.74826405 162.15618943 345 160 C319.04240103 160.10761533 293.08482913 160.22044112 267.12727928 160.33933926 C255.07265502 160.39443598 243.01802781 160.44787709 230.96337891 160.49731445 C220.44710373 160.5404471 209.93084827 160.58679432 199.41460383 160.63687855 C193.85495505 160.66324771 188.29530959 160.68809085 182.73563766 160.70907402 C177.48422184 160.72894484 172.23284274 160.75316945 166.98146057 160.78049088 C165.0717652 160.78970311 163.16206188 160.79743187 161.25235367 160.80341911 C143.89499909 160.85942912 126.35408129 160.95076246 109.125 163.25 C108.14144531 163.37930908 107.15789063 163.50861816 106.14453125 163.6418457 C70.02269572 168.6303997 34.49065083 179.62948881 6.15625 203.3359375 C4 205 4 205 0 207 C0 138.69 0 70.38 0 0 Z " fill="#324629" transform="translate(3024,27)"/>
<path d="M0 0 C1.34353672 -0.00702052 2.68707309 -0.01410736 4.03060913 -0.02125549 C8.30947335 -0.04069016 12.58828361 -0.0456905 16.8671875 -0.046875 C17.59604156 -0.04731686 18.32489563 -0.04775871 19.07583618 -0.04821396 C41.42954911 -0.05532372 63.54597103 0.27869995 85.7421875 3.203125 C86.76143311 3.3339447 86.76143311 3.3339447 87.80126953 3.46740723 C132.10892198 9.15789984 176.37315042 19.70761847 216.7421875 39.203125 C217.80421387 39.71141846 217.80421387 39.71141846 218.88769531 40.22998047 C240.09488038 50.42555114 259.24861902 62.68132962 277.7421875 77.203125 C279.04349609 78.19505859 279.04349609 78.19505859 280.37109375 79.20703125 C281.54478516 80.10228516 281.54478516 80.10228516 282.7421875 81.015625 C283.4021875 81.51707031 284.0621875 82.01851563 284.7421875 82.53515625 C287.23406566 84.6133437 289.45604766 86.90032233 291.7421875 89.203125 C292.86096699 90.2357029 293.98356991 91.26414906 295.109375 92.2890625 C296.27889058 93.38515558 297.44815812 94.48151337 298.6171875 95.578125 C299.22304688 96.11695312 299.82890625 96.65578125 300.453125 97.2109375 C301.0203125 97.75234375 301.5875 98.29375 302.171875 98.8515625 C302.94893799 99.56578369 302.94893799 99.56578369 303.74169922 100.29443359 C305.38004587 103.42000562 304.48757593 105.83601038 303.7421875 109.203125 C302.92398368 111.61257309 302.0282661 113.99650897 301.07421875 116.35546875 C300.51220267 117.76441902 299.95036207 119.17343931 299.38867188 120.58251953 C298.94140747 121.69267426 298.94140747 121.69267426 298.48510742 122.82525635 C290.22394272 143.38333055 282.88040016 164.23352131 275.7421875 185.203125 C275.44401123 186.07809631 275.14583496 186.95306763 274.83862305 187.85455322 C266.67365948 211.83462011 258.89836442 235.90225474 251.7421875 260.203125 C250.4221875 260.203125 249.1021875 260.203125 247.7421875 260.203125 C246.35546875 258.62109375 246.35546875 258.62109375 245.0546875 256.390625 C216.18775405 210.2467239 161.75868438 180.47464731 110.015625 168.31640625 C97.04392968 165.44977017 84.01037343 163.04615383 70.7421875 162.203125 C69.8155127 162.14286133 68.88883789 162.08259766 67.93408203 162.02050781 C1.49022895 157.97544799 -63.95488896 174.62708662 -115.2578125 218.203125 C-116.38224458 219.12048822 -117.50714426 220.03727905 -118.6328125 220.953125 C-124.7247559 226.17479077 -129.96197611 232.19438756 -135.2578125 238.203125 C-136.0209375 239.05390625 -136.7840625 239.9046875 -137.5703125 240.78125 C-184.70119533 295.04377958 -198.91867342 371.07137867 -194.48779297 440.99853516 C-189.72777229 507.32553237 -165.57380731 569.23120208 -115.6953125 614.515625 C-104.67725547 623.93781266 -92.90677223 632.1440219 -80.2578125 639.203125 C-79.54286621 639.60772949 -78.82791992 640.01233398 -78.09130859 640.42919922 C-47.95704377 657.368733 -13.6540727 667.20304551 20.7421875 670.203125 C21.93070312 670.31398438 23.11921875 670.42484375 24.34375 670.5390625 C90.87915016 675.90248256 158.63202957 657.79007599 210.0703125 614.53515625 C232.21975315 595.23268912 232.21975315 595.23268912 248.7421875 571.203125 C249.7321875 571.533125 250.7221875 571.863125 251.7421875 572.203125 C252.8828125 574.9921875 252.8828125 574.9921875 253.9921875 578.828125 C254.2021637 579.53632385 254.41213989 580.24452271 254.628479 580.97418213 C255.09338391 582.54262337 255.55326411 584.1125601 256.00891113 585.68371582 C257.29771059 590.11180505 258.63735893 594.52443901 259.9765625 598.9375 C260.26891785 599.90218201 260.56127319 600.86686401 260.86248779 601.86077881 C271.1868962 635.72634408 282.77220961 669.23483188 295.32421875 702.3359375 C295.61175018 703.09495361 295.89928162 703.85396973 296.19552612 704.63598633 C297.59160325 708.29232414 299.03063017 711.92196827 300.55615234 715.52636719 C300.84221848 716.21004364 301.12828461 716.89372009 301.42301941 717.59811401 C302.19730731 719.43596887 302.98803383 721.26687417 303.7800293 723.09716797 C304.81532893 726.43923392 304.94578311 727.94892096 303.7421875 731.203125 C302.33447266 733.09667969 302.33447266 733.09667969 300.53125 734.875 C299.86939697 735.53459717 299.20754395 736.19419434 298.52563477 736.8737793 C297.45720337 737.90305542 297.45720337 737.90305542 296.3671875 738.953125 C295.6362085 739.66831299 294.90522949 740.38350098 294.15209961 741.12036133 C288.60114009 746.49783428 282.87431838 751.49612413 276.7421875 756.203125 C275.47972804 757.20479631 274.21806923 758.20747722 272.95703125 759.2109375 C207.47087742 810.86939939 117.98880412 833.11523462 35.5859375 833.40625 C34.28233276 833.41195007 32.97872803 833.41765015 31.63562012 833.42352295 C28.88940049 833.4339212 26.14320908 833.43983353 23.39697266 833.44335938 C20.65562296 833.44769861 17.91459608 833.46143424 15.17333984 833.484375 C-46.71654776 833.99095444 -107.23111402 821.70554303 -163.2578125 795.203125 C-164.58643311 794.57905762 -164.58643311 794.57905762 -165.94189453 793.94238281 C-205.34166221 775.28906686 -239.8322926 748.5807008 -270.6328125 717.953125 C-271.19162109 717.39898926 -271.75042969 716.84485352 -272.32617188 716.27392578 C-311.84162581 676.60576647 -340.42282346 625.5396929 -359.2578125 573.203125 C-359.61327148 572.22585449 -359.96873047 571.24858398 -360.33496094 570.24169922 C-377.9087917 521.47225619 -385.47446514 469.22777376 -385.5078125 417.515625 C-385.50848724 416.5628064 -385.50916199 415.60998779 -385.50985718 414.6282959 C-385.45311328 363.57575647 -377.50720129 313.65466406 -361.2578125 265.203125 C-360.93200195 264.22585449 -360.60619141 263.24858398 -360.27050781 262.24169922 C-345.03973984 217.10969817 -321.46948401 174.43842368 -290.76220703 138 C-289.38429763 136.35420104 -288.03446623 134.68987195 -286.69140625 133.015625 C-279.72764834 124.46889503 -271.96405742 116.69691196 -264.1953125 108.890625 C-263.64050201 108.33054749 -263.08569153 107.77046997 -262.5140686 107.19342041 C-255.42746532 100.05489152 -248.14792538 93.46194539 -240.2578125 87.203125 C-239.00959814 86.15534253 -237.76555651 85.10255184 -236.52734375 84.04296875 C-220.1882513 70.23864741 -202.02294634 58.70976118 -183.33642578 48.35546875 C-181.42637458 47.29657262 -179.52725707 46.22029562 -177.62890625 45.140625 C-124.56557916 15.73346272 -60.58315868 0.21414151 0 0 Z " fill="#324629" transform="translate(402.2578125,14.796875)"/>
<path d="M0 0 C0.66 0.33 1.32 0.66 2 1 C-6.25 9.25 -14.5 17.5 -23 26 C-23.66 25.67 -24.32 25.34 -25 25 C-17.0225481 16.21470487 -9.11773221 7.62912287 0 0 Z " fill="#717B64" transform="translate(2305,354)"/>
<path d="M0 0 C0.33 0 0.66 0 1 0 C1 13.2 1 26.4 1 40 C-1 39 -1 39 -2.125 35.9375 C-2.41375 34.968125 -2.7025 33.99875 -3 33 C-2.01 33.33 -1.02 33.66 0 34 C0 22.78 0 11.56 0 0 Z " fill="#848B76" transform="translate(2225,516)"/>
</svg>
