<?xml version="1.0" encoding="UTF-8"?>
<svg version="1.1" xmlns="http://www.w3.org/2000/svg" width="657" height="1175">
<path d="M0 0 C3.93250162 1.31083387 4.39057384 2.85366395 6.46875 6.390625 C7.44908203 8.04384766 7.44908203 8.04384766 8.44921875 9.73046875 C9.13303359 10.90351698 9.81662534 12.07669528 10.5 13.25 C11.18277709 14.40803397 11.86636218 15.56559196 12.55078125 16.72265625 C13.81455823 18.86384841 15.0747046 21.00719044 16.33007812 23.15332031 C17.36293393 24.91400726 18.43924668 26.65090384 19.5810829 28.34294985 C21.16431458 31.30769386 21.37428882 33.02530701 21.37259549 36.35948211 C21.37933737 37.43001389 21.38607925 38.50054567 21.39302543 39.6035178 C21.38120387 41.36223212 21.38120387 41.36223212 21.36914349 43.15647602 C21.37260502 44.4099534 21.37606655 45.66343077 21.37963298 46.95489231 C21.38885287 50.44715682 21.37930443 53.93915996 21.36679858 57.43140504 C21.35650787 61.2256768 21.36360609 65.01992169 21.36853105 68.81419867 C21.37475796 75.46831463 21.36981129 82.1223502 21.35761642 88.77645683 C21.33953334 98.67090004 21.33860696 108.56529242 21.34124239 118.45974914 C21.34518706 135.10266054 21.33514863 151.74553626 21.31719017 168.38843727 C21.29944997 184.8712564 21.28789453 201.35406066 21.28463173 217.83688927 C21.28442551 218.86105584 21.28421929 219.88522241 21.28400682 220.94042433 C21.28299185 226.14147272 21.28208769 231.34252112 21.2812262 236.54356953 C21.27492196 273.39974332 21.25470152 310.2558977 21.22631836 347.11206055 C21.19877323 382.92130429 21.17751839 418.73054271 21.16479492 454.53979492 C21.16420305 456.19496945 21.16420305 456.19496945 21.16359923 457.88358186 C21.15964373 468.96469626 21.15581628 480.04581071 21.15208265 491.12692519 C21.14447365 513.70120948 21.13600989 536.27549343 21.12702942 558.84977722 C21.12661755 559.88774709 21.12620568 560.92571695 21.12578133 561.99514045 C21.09817099 631.33010171 21.05063442 700.6650522 21 770 C36.82059468 769.93946104 52.64100949 769.86195812 68.46141338 769.76428509 C75.80718742 769.71932837 83.152913 769.67991348 90.4987793 769.65356445 C96.90179022 769.63058329 103.30464774 769.5971841 109.707537 769.55129844 C113.09753016 769.52736759 116.48737143 769.50863801 119.87744713 769.50238609 C123.6629136 769.4927859 127.44782399 769.46477405 131.2331543 769.43237305 C132.35596802 769.43380814 133.47878174 769.43524323 134.63562012 769.4367218 C135.66902023 769.42418365 136.70242035 769.41164551 137.76713562 769.39872742 C138.66219661 769.39411845 139.5572576 769.38950949 140.47944164 769.38476086 C143.56690707 768.91346217 145.46477336 767.79366018 148 766 C149.90053148 763.19522299 150.25006602 760.96869817 150.2515564 757.62025452 C150.25693924 756.75005676 150.26232208 755.87985901 150.26786804 754.98329163 C150.26168205 753.56275734 150.26168205 753.56275734 150.25537109 752.11352539 C150.25899155 751.10969818 150.262612 750.10587097 150.26634216 749.07162476 C150.27323638 746.89071117 150.27574155 744.70978034 150.27439499 742.52885628 C150.27342915 739.06773896 150.28638198 735.60693173 150.30337524 732.14585876 C150.34961047 722.30453952 150.3742242 712.46325025 150.38085938 702.62182617 C150.38589814 696.59999456 150.41027488 690.5784835 150.44618607 684.55676079 C150.45593605 682.27046071 150.45834247 679.98411625 150.45301437 677.69780159 C150.40373821 655.49773988 153.85916773 643.53910499 169.05297852 627.33081055 C173.9640321 622.08322151 178.59381122 616.68005403 183 611 C183.54914063 610.29633301 184.09828125 609.59266602 184.6640625 608.86767578 C193.59368635 597.37078508 201.85397433 585.69166987 209 573 C209.37737305 572.33581055 209.75474609 571.67162109 210.14355469 570.98730469 C221.18642933 551.24755278 226.98957819 527.58947974 227.23828125 505.00390625 C227.25304001 503.89072273 227.25304001 503.89072273 227.26809692 502.75505066 C227.80872342 451.30140929 211.03975488 410.14073369 186.50732422 365.74121094 C185.01355435 363.02464987 183.53710078 360.29942623 182.06640625 357.5703125 C175.275022 344.98181894 168.18022261 332.59674161 160.91992188 320.2734375 C158.88558323 316.80492115 156.87099796 313.32546091 154.859375 309.84375 C146.02415019 294.57848851 136.80333321 279.67023623 127 265 C123.04 259.06 119.08 253.12 115 247 C114.67 390.55 114.34 534.1 114 682 C99.15 682 84.3 682 69 682 C67.05746201 680.05746201 67.87584458 677.1089593 67.86899152 674.52311805 C67.87161854 673.57918125 67.87424555 672.63524446 67.87695217 671.66270351 C67.87579833 670.6654092 67.87464448 669.66811488 67.87345567 668.64059952 C67.87078069 665.25407142 67.87531837 661.8675896 67.87974548 658.48106384 C67.87930996 656.04656846 67.87843541 653.61207312 67.87715632 651.17757803 C67.87537864 645.86148036 67.8767361 640.5453969 67.88079453 635.22930145 C67.88681263 627.3243786 67.88713191 619.41946282 67.88625254 611.51453809 C67.88493647 598.21924842 67.88828825 584.9239637 67.89426994 571.62867546 C67.90018026 558.45836297 67.90403453 545.28805253 67.90512276 532.11773872 C67.9051915 531.29986286 67.90526024 530.481987 67.90533106 529.63932703 C67.90566938 525.48600949 67.90597077 521.33269195 67.90625793 517.1793744 C67.9083602 487.73603661 67.91510272 458.29270151 67.92456055 428.84936523 C67.93374 400.23966486 67.94082605 371.62996522 67.94506836 343.02026367 C67.94519989 342.13890221 67.94533141 341.25754075 67.94546692 340.34947136 C67.94678541 331.49874503 67.94806123 322.6480187 67.94930578 313.79729236 C67.95184222 295.76619312 67.95466347 277.73509392 67.95765686 259.70399475 C67.95779415 258.87489358 67.95793144 258.0457924 67.95807289 257.19156695 C67.96727871 201.79437683 67.98314525 146.39718825 68 91 C71.80550805 94.70173218 74.71924118 98.39806524 77.4375 102.9375 C78.31268805 104.36786973 79.1890578 105.79751688 80.06640625 107.2265625 C80.53578613 107.99387695 81.00516602 108.76119141 81.48876953 109.55175781 C84.23606797 114.00247004 87.05976584 118.40457283 89.875 122.8125 C95.78696792 132.0868647 101.66966986 141.37924029 107.53662109 150.68212891 C109.00773073 153.01224484 110.48193327 155.34037593 111.95703125 157.66796875 C117.66896004 166.68552042 123.32795393 175.73359023 128.93554688 184.81640625 C132.45092937 190.5075817 135.98925499 196.1837883 139.54223633 201.8515625 C145.7264429 211.71697719 151.83936257 221.6213926 157.87744141 231.5769043 C161.6549355 237.8020658 165.46922299 244.00276572 169.3125 250.1875 C176.19495138 261.2724915 182.95937266 272.42843625 189.71894836 283.58854675 C192.20489649 287.69171419 194.69807926 291.79041148 197.1953125 295.88671875 C264.47189986 406.27608088 264.47189986 406.27608088 273 471 C273.1546875 472.15798096 273.1546875 472.15798096 273.3125 473.33935547 C279.85366918 529.23130995 262.9450417 588.31115898 228.3125 632.5625 C218.72675004 644.50734919 208.33694848 656.58454457 195.77734375 665.46484375 C192.07710142 668.66087724 191.66214009 672.31481977 191 677 C190.91138857 678.98288983 190.86940629 680.96825747 190.8671875 682.953125 C190.86525391 684.11175049 190.86332031 685.27037598 190.86132812 686.46411133 C190.8680957 688.33812622 190.8680957 688.33812622 190.875 690.25 C190.87693359 691.56830811 190.87886719 692.88661621 190.88085938 694.24487305 C190.91096413 703.40139706 191.12891398 712.54591792 191.43035889 721.69711304 C191.81538447 733.39247616 192.1503038 745.08694784 192.23217773 756.78890991 C192.24385652 758.19686314 192.26075554 759.60478496 192.28344727 761.01260376 C192.53980088 777.68038282 188.52976087 789.65750021 177.14453125 801.95703125 C169.94317811 808.8173367 162.74200112 812.24466643 152.72311306 812.26006222 C152.00927943 812.26386789 151.29544579 812.26767356 150.55998084 812.27159455 C148.16763451 812.28190225 145.77552581 812.2780057 143.38316345 812.27415466 C141.65070682 812.27860753 139.91825222 812.28392174 138.18580061 812.29002339 C133.42437642 812.30420829 128.6630175 812.30586658 123.90157521 812.30542648 C118.76640098 812.30707428 113.63125367 812.3201402 108.49609375 812.33161926 C97.26659585 812.35447235 86.03711684 812.36239037 74.80759883 812.36744571 C67.79450051 812.37070269 60.78140767 812.37722523 53.76831245 812.3844471 C34.34754965 812.40401427 14.92679194 812.42041751 -4.49398136 812.42332363 C-6.35830632 812.42360499 -6.35830632 812.42360499 -8.2602944 812.42389202 C-10.77988907 812.42425827 -13.29948373 812.42462197 -15.81907839 812.42498314 C-17.06979571 812.42516595 -18.32051302 812.42534876 -19.60913086 812.42553711 C-20.86137663 812.42571766 -22.11362241 812.42589821 -23.40381502 812.42608423 C-43.68989218 812.42962506 -63.97586314 812.4566413 -84.26190347 812.494035 C-105.09394049 812.53212749 -125.92592483 812.55148118 -146.75799745 812.55178314 C-158.45252383 812.55236754 -170.14692355 812.56084794 -181.84141731 812.58978081 C-191.80067627 812.61430735 -201.75976238 812.62156897 -211.71904338 812.60653328 C-216.79816541 812.5993694 -221.87694622 812.60019951 -226.95602989 812.62294388 C-231.6117208 812.643592 -236.26680942 812.64087913 -240.92249423 812.62006903 C-242.6008707 812.61658526 -244.27929116 812.62143669 -245.95761002 812.63577347 C-260.01776821 812.74807625 -271.47484272 810.52131169 -281.8515625 800.3125 C-297.99678088 782.93437404 -298.47696903 761.79308128 -298.16113281 739.26220703 C-298 737 -298 737 -297 736 C-294.70360096 735.8993557 -292.40407133 735.86918047 -290.10546875 735.8671875 C-289.4028743 735.86623077 -288.70027985 735.86527405 -287.97639465 735.86428833 C-286.47913525 735.86360567 -284.98187292 735.86546587 -283.48461914 735.86962891 C-281.23511719 735.87488866 -278.98582307 735.86973319 -276.73632812 735.86328125 C-268.44111333 735.85983023 -260.25889177 736.12392087 -252 737 C-251.98541748 737.62455078 -251.97083496 738.24910156 -251.95581055 738.89257812 C-251.88066898 741.76229552 -251.78423065 744.63093237 -251.6875 747.5 C-251.65366211 748.97339844 -251.65366211 748.97339844 -251.61914062 750.4765625 C-251.33989609 758.09232266 -250.38916921 765.15734265 -245 771 C-242.96789489 771.57934902 -242.96789489 771.57934902 -240.67019653 771.46203613 C-239.33079954 771.46396973 -239.33079954 771.46396973 -237.96434402 771.46594238 C-236.48563387 771.43736145 -236.48563387 771.43736145 -234.97705078 771.40820312 C-233.92479687 771.40393311 -232.87254295 771.39966309 -231.78840256 771.39526367 C-228.21530957 771.37610799 -224.64313895 771.32833238 -221.0703125 771.28125 C-218.49497794 771.26207299 -215.91962833 771.24483517 -213.3442688 771.22937012 C-207.65958973 771.19305564 -201.97515509 771.14303496 -196.29064941 771.0859375 C-186.57118633 770.98970426 -176.85164005 770.93826436 -167.13183594 770.890625 C-163.66225063 770.87319027 -160.19266673 770.85548984 -156.7230835 770.83764648 C-155.85257394 770.83317473 -154.98206439 770.82870298 -154.08517575 770.82409573 C-144.28068629 770.77292199 -134.47628191 770.70941452 -124.671875 770.64453125 C-123.78072856 770.63864046 -122.88958213 770.63274967 -121.97143126 770.62668037 C-118.35293127 770.60273114 -114.73443166 770.57872618 -111.1159327 770.5546217 C-101.80171621 770.49262703 -92.48748561 770.4328805 -83.17325377 770.37324238 C-64.11548692 770.25117099 -45.05773779 770.12652343 -26 770 C-26.00197341 769.04319747 -26.00197341 769.04319747 -26.00398668 768.0670656 C-26.1467515 698.6068502 -26.27211803 629.14661209 -26.30679321 559.68624878 C-26.30731627 558.6483475 -26.30783934 557.61044622 -26.30837825 556.54109339 C-26.31964222 533.98361653 -26.32779124 511.42613956 -26.33273234 488.86866046 C-26.33517449 477.80615758 -26.33830482 466.74365494 -26.34179688 455.68115234 C-26.34213266 454.5803121 -26.34246844 453.47947185 -26.3428144 452.34527281 C-26.3540167 416.67663937 -26.41064455 381.0082542 -26.49087974 345.33971485 C-26.57310537 308.67950559 -26.60940198 272.01952996 -26.58807376 235.35922773 C-26.58508131 230.17885581 -26.5826128 224.99848376 -26.58046341 219.81811142 C-26.58002418 218.79855998 -26.57958495 217.77900854 -26.57913241 216.7285616 C-26.5734142 200.32966291 -26.61597854 183.93122944 -26.67669113 167.53245696 C-26.73672411 151.03803256 -26.74567049 134.54420235 -26.70284949 118.04971887 C-26.67896321 108.25473491 -26.69386687 98.46162279 -26.76500368 88.66685833 C-26.80872091 82.11483403 -26.80115357 75.56413218 -26.75282584 69.01214444 C-26.72676507 65.28365642 -26.72210795 61.55876387 -26.78031938 57.83055808 C-27.01720603 41.63720796 -26.26985501 29.80173818 -14.62453616 17.66987407 C-13.72150608 16.77308712 -13.72150608 16.77308712 -12.80023296 15.85818325 C-9.79343452 12.75459465 -7.23643207 9.31085 -4.625 5.875 C-3.72361981 4.7247834 -2.8201991 3.57616076 -1.9140625 2.4296875 C-1.28242188 1.62789062 -0.65078125 0.82609375 0 0 Z " fill="#FFFFFF" transform="translate(383,61)"/>
<path d="M0 0 C7.79318532 4.48796743 15.02394392 10.21686979 22.1875 15.625 C20.50060222 20.67877724 17.59374345 24.82576904 14.66796875 29.2265625 C14.10608856 30.07904068 13.54420837 30.93151886 12.96530151 31.80982971 C11.10661587 34.62639001 9.2410373 37.43830593 7.375 40.25 C6.06747106 42.2268663 4.76010041 44.2038373 3.45288086 46.1809082 C-7.34689742 62.49455452 -18.27639349 78.71994361 -29.23655701 94.92608643 C-35.80102501 104.63331704 -42.3254405 114.36589654 -48.8125 124.125 C-54.70960687 132.99658135 -60.6304206 141.85117195 -66.59765625 150.67578125 C-67.18852524 151.5496196 -67.77939423 152.42345795 -68.38816833 153.32377625 C-69.60382244 155.12143192 -70.81949546 156.91907481 -72.03518677 158.71670532 C-86.07789072 179.48365792 -99.92522667 200.37476542 -113.67822266 221.33459473 C-114.40996704 222.44961365 -114.40996704 222.44961365 -115.15649414 223.5871582 C-115.57532364 224.225793 -115.99415314 224.8644278 -116.42567444 225.52241516 C-117.8125 227.625 -117.8125 227.625 -119.86743855 230.21344101 C-122.31106014 234.49945428 -122.3740551 237.47827341 -122.32030869 242.31252861 C-122.32661244 243.17883388 -122.33291619 244.04513915 -122.33941096 244.9376961 C-122.35571042 247.84877854 -122.3434935 250.75904223 -122.33148193 253.6701355 C-122.33735569 255.77484266 -122.34498195 257.87954554 -122.354213 259.98424065 C-122.37452075 265.77416058 -122.36990687 271.56383616 -122.36130548 277.3537755 C-122.35637109 283.59506545 -122.37443253 289.8362932 -122.38972473 296.07756042 C-122.41306624 306.89309885 -122.42192302 317.70854761 -122.42061615 328.52410507 C-122.41930609 339.86772766 -122.42624002 351.21129583 -122.44419098 362.55490494 C-122.44530237 363.26014301 -122.44641376 363.96538108 -122.44755882 364.69199001 C-122.45324589 368.27351931 -122.4590803 371.85504836 -122.46497145 375.43657734 C-122.50643633 400.80634571 -122.52940698 426.17610049 -122.54150391 451.54589844 C-122.55329842 476.19272403 -122.57346852 500.83951951 -122.60498047 525.48632812 C-122.6064324 526.62585608 -122.6064324 526.62585608 -122.60791365 527.7884048 C-122.61764345 535.41745784 -122.62754354 543.04651066 -122.63756842 550.67556333 C-122.65798647 566.2169047 -122.67726781 581.75824741 -122.69586182 597.29959106 C-122.69671815 598.01416119 -122.69757447 598.72873131 -122.69845675 599.46495507 C-122.75551331 647.18495385 -122.78598866 694.9049755 -122.8125 742.625 C-126.97586444 742.76248612 -131.13925767 742.89905865 -135.30267715 743.03486538 C-136.71237834 743.08096762 -138.12207206 743.12729887 -139.53175735 743.17388439 C-152.12754973 743.58986926 -164.72358615 743.89628034 -177.32421875 744.12768555 C-180.60683356 744.18831889 -183.88934793 744.25316447 -187.171875 744.31835938 C-191.4184463 744.40176445 -195.66486829 744.4706204 -199.91186523 744.52807617 C-203.68799148 744.58009633 -207.45711963 744.6793674 -211.23071289 744.82543945 C-220.58381571 745.12471178 -227.55115731 744.73734932 -235.75 739.6875 C-236.62986572 739.18532959 -237.50973145 738.68315918 -238.41625977 738.16577148 C-245.30073733 734.15728935 -251.70605839 729.74899053 -257.8125 724.625 C-258.9489889 723.70153997 -260.0857203 722.77837833 -261.22265625 721.85546875 C-297.90281809 691.66302279 -320.79633769 644.47632346 -325.65644836 597.40132141 C-326.76605389 585.7276892 -327.17314897 574.16078513 -327.125 562.4375 C-327.12317719 561.50544739 -327.12135437 560.57339478 -327.11947632 559.61309814 C-327.06975012 544.42992545 -326.35302179 529.62308041 -323.8125 514.625 C-323.64621094 513.60954102 -323.47992188 512.59408203 -323.30859375 511.54785156 C-314.92261028 461.71336831 -291.90734485 414.47590314 -265.8125 371.625 C-265.36657501 370.89189606 -264.92065002 370.15879211 -264.46121216 369.4034729 C-256.71815395 356.70600208 -248.69440243 344.22152758 -240.41821289 331.86547852 C-238.61094917 329.16651653 -236.810008 326.46341474 -235.00976562 323.75976562 C-216.10777942 295.4296072 -216.10777942 295.4296072 -205.8125 282.625 C-205.4825 282.625 -205.1525 282.625 -204.8125 282.625 C-204.55608983 292.7960423 -204.36141378 302.96629935 -204.24256611 313.13993168 C-204.18548295 317.86570031 -204.10824771 322.5892367 -203.98266602 327.3137207 C-203.86193282 331.88512551 -203.79712906 336.4544032 -203.76885033 341.02728081 C-203.74873657 342.75965262 -203.70946163 344.49192576 -203.64946938 346.22337532 C-203.22018319 359.14313153 -205.95019477 366.31700346 -214.48082352 376.03028011 C-217.93331043 380.16472989 -220.52105688 384.99731347 -223.25 389.625 C-223.88196289 390.68968506 -224.51392578 391.75437012 -225.16503906 392.85131836 C-242.17357343 421.78594256 -255.34078294 452.15223895 -266.8125 483.625 C-267.49070801 485.4822168 -267.49070801 485.4822168 -268.18261719 487.37695312 C-273.88834134 503.19954951 -278.20577741 518.99379583 -280.8125 535.625 C-280.92303711 536.32294678 -281.03357422 537.02089355 -281.14746094 537.73999023 C-285.63487349 571.18398927 -280.71029887 606.3678013 -265.8125 636.625 C-265.46815918 637.33140625 -265.12381836 638.0378125 -264.76904297 638.765625 C-257.91293126 652.6814037 -249.50682914 664.32966724 -238.8125 675.625 C-237.98105469 676.52089844 -237.14960938 677.41679688 -236.29296875 678.33984375 C-234.04303796 680.6886002 -231.74236008 682.94629596 -229.36662292 685.1665802 C-227.91344819 686.53026821 -226.48418092 687.9193079 -225.05688477 689.31005859 C-214.30577238 698.82923772 -202.65252154 697.98461768 -188.9375 697.75 C-186.68880142 697.74805448 -184.44009418 697.75062297 -182.19140625 697.7578125 C-178.32819991 697.76919999 -174.46734238 697.74394266 -170.60456848 697.69085693 C-169.25716945 697.6724859 -169.25716945 697.6724859 -167.88255024 697.65374374 C-167.19943366 697.64425831 -166.51631708 697.63477287 -165.8125 697.625 C-165.84128432 696.85697933 -165.87006863 696.08895866 -165.8997252 695.29766464 C-166.77050037 671.36649357 -167.01098117 647.45237313 -167.08981514 623.50695086 C-167.10460375 619.22814655 -167.12268727 614.94935819 -167.14064655 610.6705662 C-167.30982522 570.15534659 -167.39600042 529.63973702 -167.46456528 489.12423706 C-167.47361065 483.87351452 -167.48282093 478.62279229 -167.4921875 473.37207031 C-167.49566737 471.41500212 -167.49566737 471.41500212 -167.49921754 469.41839719 C-167.53810176 448.22158918 -167.61878148 427.02513984 -167.71531627 405.82852459 C-167.81391303 383.99669838 -167.87074437 362.16505922 -167.88814378 340.33301544 C-167.89902429 328.10196372 -167.9285836 315.87157432 -168.00609589 303.64074707 C-168.07197651 293.24405068 -168.10050402 282.84810151 -168.08052835 272.4512006 C-168.07152295 267.15419099 -168.08006154 261.85879763 -168.13721848 256.56205368 C-168.18923956 251.70362761 -168.18942843 246.84792481 -168.15017512 241.9894042 C-168.14487705 240.24240769 -168.15780019 238.49522845 -168.19189379 236.74855661 C-168.43102155 223.71189468 -164.9932379 215.7872283 -157.14954594 205.41999793 C-155.21826298 202.82723068 -153.49556633 200.12811951 -151.7578125 197.40234375 C-150.48487984 195.45539901 -149.21143065 193.50879188 -147.9375 191.5625 C-146.87039795 189.93139282 -146.87039795 189.93139282 -145.78173828 188.26733398 C-136.93034525 174.7405435 -128.05871468 161.2270163 -119.18493652 147.71490479 C-117.82401577 145.64253587 -116.46325718 143.57006056 -115.10253906 141.49755859 C-109.90694515 133.58454542 -104.70850596 125.67341115 -99.50665283 117.76451111 C-96.81488716 113.67161012 -94.12458068 109.57775954 -91.43652344 105.48242188 C-77.79785066 84.70469464 -64.09019082 63.97726589 -50.1875 43.375 C-49.59016052 42.48965576 -48.99282104 41.60431152 -48.37738037 40.69213867 C-45.04990195 35.76303658 -41.71570332 30.83857366 -38.37243652 25.92016602 C-37.33025119 24.38677775 -36.288995 22.85275759 -35.24865723 21.31811523 C-33.76545619 19.13166318 -32.27794281 16.94821243 -30.7890625 14.765625 C-30.35765961 14.12856628 -29.92625671 13.49150757 -29.48178101 12.83514404 C-22.33138992 2.39043747 -13.53332697 -6.14092901 0 0 Z " fill="#FFFFFF" transform="translate(331.8125,1.375)"/>
<path d="M0 0 C0.33 0 0.66 0 1 0 C1 183.81 1 367.62 1 557 C-14.18 557 -29.36 557 -45 557 C-45.16913677 510.40136185 -45.3304485 463.80273065 -45.4234314 417.20387268 C-45.42481197 416.5137624 -45.42619254 415.82365213 -45.42761494 415.11262942 C-45.45754677 400.11325191 -45.4852482 385.11387107 -45.51065329 370.11448523 C-45.52312623 362.75837027 -45.53609183 355.40225622 -45.54931641 348.04614258 C-45.550624 347.3141362 -45.55193159 346.58212983 -45.5532788 345.82794144 C-45.59586241 322.11827184 -45.67095287 298.40884119 -45.76297221 274.69931624 C-45.85739302 250.3266599 -45.91887632 225.9541357 -45.9391499 201.58129956 C-45.94203128 198.13570737 -45.94528765 194.69011563 -45.94877243 191.244524 C-45.94944666 190.56640846 -45.95012089 189.88829292 -45.95081555 189.18962842 C-45.96261474 178.29103508 -46.00894587 167.39285132 -46.06832034 156.49442475 C-46.12732758 145.5272731 -46.14883917 134.56046613 -46.13501377 123.59315317 C-46.12861453 117.65476803 -46.13835657 111.71758098 -46.19205475 105.77940941 C-46.24091897 100.33589637 -46.24305188 94.89438056 -46.20898895 89.45077325 C-46.2047828 87.48816399 -46.2173043 85.52542729 -46.24883182 83.56306677 C-46.45889818 69.67324613 -43.72647778 61.77976778 -35 51 C-33.73851534 49.17769105 -32.49089978 47.34552944 -31.26953125 45.49609375 C-30.11801687 43.80932935 -28.96566702 42.123135 -27.8125 40.4375 C-26.52989509 38.55993192 -25.24734473 36.68232657 -23.96484375 34.8046875 C-22.99200439 33.3810791 -22.99200439 33.3810791 -21.99951172 31.92871094 C-19.95643658 28.93619208 -17.91712901 25.94113814 -15.87890625 22.9453125 C-15.20819092 21.95990479 -14.53747559 20.97449707 -13.84643555 19.95922852 C-12.56740303 18.07988228 -11.28888869 16.20018325 -10.01098633 14.32006836 C-3.11244825 4.18983419 -3.11244825 4.18983419 0 0 Z " fill="#FFFFFF" transform="translate(300,188)"/>
<path d="M0 0 C16.17 0 32.34 0 49 0 C47.91804447 5.40977767 46.52292691 6.96152282 43 11 C41.34114852 13.8016178 40.74274001 15.88235942 40.68115234 19.12597656 C40.66109131 19.93760254 40.64103027 20.74922852 40.62036133 21.58544922 C40.60900146 22.42865723 40.5976416 23.27186523 40.5859375 24.140625 C40.56829346 24.9229248 40.55064941 25.70522461 40.5324707 26.51123047 C40.46956775 29.42394739 40.4232678 32.3370038 40.375 35.25 C40.25125 41.7675 40.1275 48.285 40 55 C63.265 52.525 63.265 52.525 87 50 C87.04125 45.75125 87.0825 41.5025 87.125 37.125 C87.14320801 35.8064502 87.16141602 34.48790039 87.18017578 33.12939453 C87.23295767 21.80853055 86.44534738 13.80668423 79.25 4.8125 C78 3 78 3 78 0 C94.17 0 110.34 0 127 0 C125.94543135 6.32741187 124.93830643 7.38929979 121 12 C118.76555209 17.10443058 118.70366077 21.79188907 118.70947266 27.2590332 C118.70275543 28.17204193 118.69603821 29.08505066 118.68911743 30.02572632 C118.67017111 33.03413384 118.66621487 36.04231784 118.6640625 39.05078125 C118.65763206 41.15056956 118.65090351 43.25035698 118.64389038 45.35014343 C118.6319259 49.7489937 118.62820869 54.14776548 118.62939453 58.54663086 C118.62959763 64.16873081 118.60230109 69.79032475 118.56785011 75.41230488 C118.54555476 79.74904162 118.54155781 84.08565712 118.54261398 88.4224453 C118.54026179 90.49438406 118.53145988 92.56632635 118.51594925 94.63820839 C118.49623692 97.54342163 118.50214808 100.44755052 118.51416016 103.3527832 C118.50292114 104.19931961 118.49168213 105.04585602 118.48010254 105.91804504 C118.55641184 113.22285125 120.67518949 119.09398686 125.25 124.8125 C127 127 127 127 127 131 C110.83 131 94.66 131 78 131 C79.08597317 125.57013415 80.51016476 124.08566077 84 120 C86.31228105 115.61482817 86.34254012 111.26936252 86.4140625 106.41796875 C86.43342865 105.60378983 86.4527948 104.7896109 86.4727478 103.95075989 C86.53228752 101.36311148 86.57882583 98.77541797 86.625 96.1875 C86.6632034 94.42771551 86.7022565 92.66794926 86.7421875 90.90820312 C86.83796782 86.60561766 86.92209285 82.3029447 87 78 C85.86046875 78.12117188 84.7209375 78.24234375 83.546875 78.3671875 C79.29063815 78.81865473 75.03383921 79.26461966 70.77685547 79.70898438 C68.9397852 79.90151011 67.10286749 80.09549758 65.26611328 80.29101562 C62.61530371 80.57292484 59.96397729 80.8494504 57.3125 81.125 C56.09481934 81.25624268 56.09481934 81.25624268 54.85253906 81.39013672 C49.87230043 81.90132602 45.00665316 82.08010645 40 82 C40.01953034 86.69647222 40.07157598 91.39109919 40.15258789 96.08691406 C40.17565393 97.68121259 40.19013667 99.27566103 40.19555664 100.87011719 C40.13846956 113.31126554 40.13846956 113.31126554 46 124 C49 127.82758621 49 127.82758621 49 131 C32.83 131 16.66 131 0 131 C1.05456865 124.67258813 2.06169357 123.61070021 6 119 C8.23444791 113.89556942 8.29633923 109.20811093 8.29052734 103.7409668 C8.29724457 102.82795807 8.30396179 101.91494934 8.31088257 100.97427368 C8.32982889 97.96586616 8.33378513 94.95768216 8.3359375 91.94921875 C8.34236794 89.84943044 8.34909649 87.74964302 8.35610962 85.64985657 C8.3680741 81.2510063 8.37179131 76.85223452 8.37060547 72.45336914 C8.37040237 66.83126919 8.39769891 61.20967525 8.43214989 55.58769512 C8.45444524 51.25095838 8.45844219 46.91434288 8.45738602 42.5775547 C8.45973821 40.50561594 8.46854012 38.43367365 8.48405075 36.36179161 C8.50376308 33.45657837 8.49785192 30.55244948 8.48583984 27.6472168 C8.49707886 26.80068039 8.50831787 25.95414398 8.51989746 25.08195496 C8.44358816 17.77714875 6.32481051 11.90601314 1.75 6.1875 C0 4 0 4 0 0 Z " fill="#FFFFFF" transform="translate(0,947)"/>
<path d="M0 0 C11.88 0 23.76 0 36 0 C44.00125072 18.59114138 51.9486174 37.19933916 59.75 55.875 C60.4966194 57.66139535 61.2432831 59.44777218 61.98999023 61.23413086 C62.36448807 62.13006454 62.7389859 63.02599823 63.12483215 63.94908142 C63.50258286 64.85275955 63.88033356 65.75643768 64.26953125 66.6875 C64.64941696 67.5962941 65.02930267 68.5050882 65.42070007 69.44142151 C69.66129103 79.58442744 73.90674695 89.7253588 78.1697998 99.85894775 C79.00900821 101.85555262 79.84683777 103.85273765 80.68322754 105.8505249 C81.84644211 108.62843029 83.01442929 111.40428207 84.18359375 114.1796875 C84.52653976 115.00162598 84.86948578 115.82356445 85.2228241 116.67041016 C88.27938637 124.33304303 88.27938637 124.33304303 94 130 C94 130.99 94 131.98 94 133 C79.48 133 64.96 133 50 133 C50.99 131.35 51.98 129.7 53 128 C52.82891172 125.36675702 52.82891172 125.36675702 51.875 122.75 C51.42833984 121.31914063 51.42833984 121.31914063 50.97265625 119.859375 C50.65167969 118.91578125 50.33070313 117.9721875 50 117 C49.70996094 116.13890625 49.41992188 115.2778125 49.12109375 114.390625 C48.61049029 112.88101477 48.08852172 111.37515803 47.55078125 109.875 C47 108 47 108 47 105 C46.4956543 105.1546875 45.99130859 105.309375 45.47167969 105.46875 C42.1508401 106.18251402 38.83553118 106.32821012 35.453125 106.5 C34.72309265 106.54060547 33.9930603 106.58121094 33.24090576 106.62304688 C30.91078663 106.75234943 28.58044049 106.87663508 26.25 107 C23.93386741 107.12373329 21.61782599 107.24866633 19.30194092 107.37695312 C17.86397964 107.45651755 16.42587309 107.5335162 14.98760986 107.60742188 C12.99048002 107.71739213 10.99514433 107.85850737 9 108 C8.27127686 108.04957352 7.54255371 108.09914703 6.79174805 108.15022278 C4.37114825 108.33821833 4.37114825 108.33821833 1 109 C-1.26685601 111.92780292 -1.26685601 111.92780292 -2.5 115.6875 C-2.9846875 116.90824219 -3.469375 118.12898438 -3.96875 119.38671875 C-5.41657821 124.45960169 -5.27343008 127.90627967 -4 133 C-17.86 133 -31.72 133 -46 133 C-45.505 131.02 -45.505 131.02 -45 129 C-43.63875 128.2265625 -43.63875 128.2265625 -42.25 127.4375 C-34.30062072 122.48263734 -31.56245821 107.74569989 -28.41052246 99.21417236 C-26.79810519 94.85044247 -25.17281878 90.49151721 -23.546875 86.1328125 C-23.19498108 85.18904755 -22.84308716 84.24528259 -22.48052979 83.2729187 C-19.5121699 75.33032707 -16.48951728 67.4089802 -13.453125 59.4921875 C-12.98092529 58.2602063 -12.50872559 57.0282251 -12.0222168 55.75891113 C-10.13289658 50.83149048 -8.24279959 45.90438519 -6.34594727 40.9798584 C-5.01400309 37.52160357 -3.68639859 34.06170788 -2.359375 30.6015625 C-1.96308899 29.57698944 -1.56680298 28.55241638 -1.1585083 27.49679565 C-0.07789387 24.67372333 0.97291451 21.8429549 2 19 C2.33584106 18.07548035 2.67168213 17.15096069 3.0177002 16.19842529 C3.46284973 14.87503143 3.46284973 14.87503143 3.91699219 13.52490234 C4.18292175 12.74786957 4.44885132 11.97083679 4.72283936 11.17025757 C5.08248459 8.35411893 4.32513906 7.26162987 2.6875 5 C1.95080078 4.195625 1.95080078 4.195625 1.19921875 3.375 C0 2 0 2 0 0 Z M23 53 C21.26036358 56.9273898 19.53343802 60.86004674 17.81811523 64.7980957 C17.23272048 66.13718418 16.64386928 67.47476714 16.05151367 68.81079102 C15.2009987 70.73068775 14.36303233 72.65564313 13.52734375 74.58203125 C12.76538696 76.31803589 12.76538696 76.31803589 11.98803711 78.08911133 C10.66858413 81.01303755 10.66858413 81.01303755 12 84 C23.88 83.01 23.88 83.01 36 82 C33.60980105 74.72176069 33.60980105 74.72176069 30.73828125 67.74609375 C30.34189453 66.87275391 29.94550781 65.99941406 29.53710938 65.09960938 C28.93092773 63.78186523 28.93092773 63.78186523 28.3125 62.4375 C27.89677734 61.52419922 27.48105469 60.61089844 27.05273438 59.66992188 C26.03917098 57.44474248 25.02154784 55.22152219 24 53 C23.67 53 23.34 53 23 53 Z " fill="#FFFFFF" transform="translate(448,947)"/>
<path d="M0 0 C11.88 0 23.76 0 36 0 C45.05644676 21.41618729 54.10762994 42.83437981 63.07833862 64.28665161 C64.18703011 66.93637699 65.29749906 69.58535095 66.40844727 72.23413086 C69.75863561 80.22562154 73.0973565 88.22111485 76.38731384 96.23762512 C77.84198412 99.77819508 79.30592942 103.31488941 80.77114868 106.85110474 C81.45732418 108.5141699 82.13905799 110.17907568 82.81600952 111.84591675 C83.74763336 114.13906589 84.6943352 116.42543424 85.64453125 118.7109375 C85.91149811 119.37967392 86.17846497 120.04841034 86.45352173 120.7374115 C88.28360544 125.08192143 90.60365366 127.78286605 94 131 C94 131.66 94 132.32 94 133 C79.48 133 64.96 133 50 133 C50.66 131.68 51.32 130.36 52 129 C52.38658999 122.60837884 49.9849741 116.51021335 47.83984375 110.6015625 C47 108 47 108 47 105 C46.4956543 105.1546875 45.99130859 105.309375 45.47167969 105.46875 C42.1508401 106.18251402 38.83553118 106.32821012 35.453125 106.5 C34.72309265 106.54060547 33.9930603 106.58121094 33.24090576 106.62304688 C30.91078663 106.75234943 28.58044049 106.87663508 26.25 107 C23.93386741 107.12373329 21.61782599 107.24866633 19.30194092 107.37695312 C17.86397964 107.45651755 16.42587309 107.5335162 14.98760986 107.60742188 C10.28429804 107.86640575 5.66515546 108.37432953 1 109 C-0.23501944 111.67788361 -1.43741862 114.36365434 -2.625 117.0625 C-3.1509375 118.19075195 -3.1509375 118.19075195 -3.6875 119.34179688 C-4.00976562 120.08623047 -4.33203125 120.83066406 -4.6640625 121.59765625 C-5.11966553 122.61098022 -5.11966553 122.61098022 -5.58447266 123.64477539 C-6.32031706 126.81163419 -6.32031706 126.81163419 -4 133 C-17.86 133 -31.72 133 -46 133 C-45.505 131.02 -45.505 131.02 -45 129 C-44.0925 128.505 -43.185 128.01 -42.25 127.5 C-39.14543783 125.54373804 -38.1733004 123.6376874 -36.83203125 120.25 C-36.40132324 119.16783203 -35.97061523 118.08566406 -35.52685547 116.97070312 C-35.01627865 115.64776142 -34.50747611 114.32413422 -34 113 C-33.70474426 112.23357178 -33.40948853 111.46714355 -33.10528564 110.67749023 C-30.10773835 102.88162816 -27.16096172 95.06661785 -24.21182251 87.25234985 C-19.30005489 74.24358446 -14.33503754 61.26022891 -9.234375 48.32421875 C-7.83861174 44.76598354 -6.44406205 41.20727497 -5.04983521 37.6484375 C-4.14354801 35.34606484 -3.23119375 33.04607092 -2.31271362 30.74853516 C-1.03051634 27.53993273 0.23084625 24.32383954 1.48828125 21.10546875 C1.87578552 20.15250412 2.26328979 19.19953949 2.66253662 18.21769714 C4.68533387 13.21357465 4.68533387 13.21357465 4.32104492 7.9699707 C3.0662093 5.9614206 3.0662093 5.9614206 1.375 4.375 C0.694375 3.694375 0.694375 3.694375 0 3 C0 2.01 0 1.02 0 0 Z M22 54 C16.06 68.355 16.06 68.355 10 83 C12.687628 84.343814 14.45708216 83.92752423 17.4453125 83.66015625 C18.52167969 83.56669922 19.59804687 83.47324219 20.70703125 83.37695312 C21.83496094 83.27318359 22.96289062 83.16941406 24.125 83.0625 C25.82849609 82.91264648 25.82849609 82.91264648 27.56640625 82.75976562 C30.37810499 82.51167456 33.18921429 82.25819788 36 82 C32.45633398 72.41491369 28.41916336 63.20765161 24 54 C23.34 54 22.68 54 22 54 Z " fill="#FFFFFF" transform="translate(184,947)"/>
<path d="M0 0 C16.5 0 33 0 50 0 C48 6 48 6 46.0625 8.375 C41.41395892 14.29132501 40.55401405 20.44437008 40.56762695 27.7109375 C40.5574353 28.54115921 40.54724365 29.37138092 40.53674316 30.22676086 C40.50679631 32.94291085 40.49737548 35.65870714 40.48828125 38.375 C40.47142096 40.26929886 40.45326891 42.16358662 40.43388367 44.05786133 C40.38652418 49.02256808 40.35662407 53.98722982 40.33044434 58.9520874 C40.30056772 64.02674239 40.25406186 69.10124255 40.20898438 74.17578125 C40.12311122 84.11710627 40.05569502 94.05846329 40 104 C45.15554675 103.88014837 50.31096131 103.75583085 55.46630859 103.62768555 C57.21367601 103.58484376 58.96107184 103.54314283 60.70849609 103.50268555 C65.70677122 103.38654662 70.7036417 103.2502279 75.70031738 103.07794189 C77.18510491 103.0276188 78.67005664 102.98183959 80.15515137 102.94158936 C82.08066393 102.88552048 84.0052881 102.80103714 85.9296875 102.71484375 C86.99171387 102.67351318 88.05374023 102.63218262 89.14794922 102.58959961 C93.8277461 101.62215316 96.27349579 98.94018192 99.125 95.25 C100.053125 94.13625 100.053125 94.13625 101 93 C101.99 93 102.98 93 104 93 C103.44236752 102.22238339 101.74898584 111.15095248 99.9375 120.1875 C99.65248205 121.63075821 99.36797337 123.07411709 99.08398438 124.51757812 C98.39517836 128.01289656 97.6995319 131.50681033 97 135 C95.79451004 134.75885216 95.79451004 134.75885216 94.56466675 134.51283264 C90.33681498 133.90459054 86.23044059 133.82427658 81.96533203 133.79467773 C81.07688095 133.78477814 80.18842987 133.77487854 79.27305603 133.76467896 C76.35133482 133.73322021 73.42959738 133.7083686 70.5078125 133.68359375 C68.47614125 133.66301072 66.44447416 133.6420139 64.41281128 133.62062073 C59.0765317 133.56553941 53.74021436 133.51606886 48.40386963 133.46777344 C42.95410825 133.4174564 37.5044014 133.36182368 32.0546875 133.30664062 C21.3698383 133.19922964 10.68494167 133.09774705 0 133 C1.39602578 128.47538072 2.94905473 125.6229975 6 122 C7.70510921 119.11058744 8.2533021 117.00521737 8.27415466 113.66253662 C8.28412979 112.80194138 8.29410492 111.94134613 8.30438232 111.05467224 C8.305047 110.11849564 8.30571167 109.18231903 8.30639648 108.21777344 C8.31472 107.22542191 8.32304352 106.23307037 8.33161926 105.21064758 C8.35573303 101.92685023 8.36449378 98.64325154 8.37109375 95.359375 C8.38006005 93.07497091 8.38918189 90.79056743 8.39845276 88.50616455 C8.41494977 83.7145444 8.422644 78.92299418 8.42553711 74.13134766 C8.4309171 68.00008286 8.46857908 61.86947808 8.51428127 55.73839951 C8.54406923 51.01824564 8.55126108 46.29825024 8.55226326 41.57801056 C8.55646319 39.31822949 8.56888824 37.05844785 8.58978081 34.79875946 C8.61672582 31.63195244 8.61185927 28.46666895 8.59936523 25.29980469 C8.62161667 23.90768517 8.62161667 23.90768517 8.64431763 22.48744202 C8.57157697 15.99184033 6.86297574 12.15811038 3 7 C0 2.24137931 0 2.24137931 0 0 Z " fill="#FFFFFF" transform="translate(550,947)"/>
<path d="M0 0 C16.17 0 32.34 0 49 0 C48.09468986 4.52655069 47.5323012 6.08221322 45 9.625 C41.25815988 14.89595747 40.84028105 18.96649856 40.79467773 25.3269043 C40.78477814 26.17590302 40.77487854 27.02490173 40.76467896 27.89962769 C40.73307417 30.70779627 40.70831052 33.51598178 40.68359375 36.32421875 C40.66302334 38.27049704 40.64202685 40.21677088 40.62062073 42.16304016 C40.56540901 47.28728628 40.51599573 52.41157265 40.46777344 57.53588867 C40.41755187 62.76419663 40.36186922 67.99244608 40.30664062 73.22070312 C40.19907005 83.48041877 40.09762259 93.74018521 40 104 C45.01313281 103.88008889 50.02613186 103.7557705 55.0390625 103.62768555 C56.73792694 103.58486108 58.43682013 103.54315967 60.13574219 103.50268555 C78.58289452 104.11635343 78.58289452 104.11635343 96 100 C97.16666667 98.08333333 97.16666667 98.08333333 98 96 C99.4375 94.25 99.4375 94.25 101 93 C101.99 93 102.98 93 104 93 C103.33312522 100.55235693 101.927862 107.91024019 100.41601562 115.33154297 C99.99679963 117.39072014 99.58390263 119.45109242 99.171875 121.51171875 C97.14808914 131.55573259 97.14808914 131.55573259 96 135 C95.03849785 134.75885216 95.03849785 134.75885216 94.05757141 134.51283264 C90.04839828 133.84039214 86.13751521 133.82272229 82.07885742 133.79467773 C81.19055237 133.78477814 80.30224731 133.77487854 79.38702393 133.76467896 C76.45986569 133.73316915 73.53269125 133.70834819 70.60546875 133.68359375 C68.57236822 133.66301514 66.53927188 133.64201843 64.50617981 133.62062073 C59.16166585 133.56549378 53.81711388 133.5160432 48.47253418 133.46777344 C43.01616035 133.41748988 37.55984155 133.36183962 32.10351562 133.30664062 C21.40239079 133.19917376 10.70121812 133.09770339 0 133 C0.69234438 129.06555712 1.66669838 126.63937871 4 123.375 C6.72799101 119.53220497 8.11684888 116.69766282 8.15390015 111.94810486 C8.16250061 111.12543121 8.17110107 110.30275757 8.17996216 109.45515442 C8.18422211 108.55592758 8.18848206 107.65670074 8.19287109 106.73022461 C8.20104858 105.78024597 8.20922607 104.83026733 8.21765137 103.85150146 C8.24249886 100.70178861 8.25902291 97.55212093 8.2734375 94.40234375 C8.27876118 93.3253528 8.28408485 92.24836185 8.28956985 91.13873482 C8.31630307 85.43437537 8.33567443 79.73003779 8.35009766 74.02563477 C8.36341927 69.31254594 8.39123936 64.59989187 8.43212891 59.88696289 C8.48154983 54.19057104 8.50623096 48.49457262 8.51332474 42.79797554 C8.5200221 40.63194041 8.53520443 38.46591354 8.55921555 36.30000114 C8.59100475 33.2580536 8.59088254 30.21760867 8.58349609 27.17553711 C8.59990143 26.29047989 8.61630676 25.40542267 8.63320923 24.49354553 C8.56682763 17.77108222 6.63680459 12.65066829 3 7 C2.45032248 6.49362472 1.90064495 5.98724943 1.33431053 5.46552944 C0 4 0 4 0 0 Z " fill="#FFFFFF" transform="translate(288,947)"/>
<path d="M0 0 C14 0 14 0 18.10546875 3.796875 C19.18200088 5.41627376 20.20928788 7.06938261 21.1875 8.75 C21.71923828 9.575 22.25097656 10.4 22.79882812 11.25 C23.78452556 12.78358195 24.75041266 14.33023542 25.68823242 15.89355469 C27.00542562 18.00871249 28.50494129 20.00658838 30 22 C30.33 14.74 30.66 7.48 31 0 C41.83984375 -0.09765625 41.83984375 -0.09765625 45 0 C46 1 46 1 46.12025452 2.98048401 C46.11803391 3.84874313 46.11581329 4.71700226 46.11352539 5.61157227 C46.11344986 6.59251358 46.11337433 7.5734549 46.11329651 8.5841217 C46.10813522 9.6507756 46.10297394 10.7174295 46.09765625 11.81640625 C46.0962413 12.9025975 46.09482635 13.98878876 46.09336853 15.1078949 C46.08775048 18.59279075 46.07519492 22.07762342 46.0625 25.5625 C46.05748733 27.91861887 46.05292402 30.27473874 46.04882812 32.63085938 C46.03777519 38.42059464 46.02101951 44.21029281 46 50 C33.14707158 50.83093807 33.14707158 50.83093807 28.91015625 47.76171875 C28.30042969 46.74722656 27.69070312 45.73273438 27.0625 44.6875 C26.37414062 43.60339844 25.68578125 42.51929688 24.9765625 41.40234375 C24.32429688 40.27957031 23.67203125 39.15679688 23 38 C21.64962923 35.91420425 20.29575349 33.83067119 18.9375 31.75 C17.968125 30.1825 16.99875 28.615 16 27 C15.67 34.59 15.34 42.18 15 50 C10.05 50 5.1 50 0 50 C0 33.5 0 17 0 0 Z " fill="#FFFFFF" transform="translate(59,1124)"/>
<path d="M0 0 C12 0 12 0 15.21875 2.6328125 C16.01996644 3.7691783 16.7808328 4.93501111 17.5 6.125 C17.88929688 6.69476562 18.27859375 7.26453125 18.6796875 7.8515625 C19.41065646 8.93084553 20.12615461 10.0209431 20.81835938 11.12548828 C22.49394649 13.78357875 24.25705491 16.38558237 26 19 C26.33 13.06 26.66 7.12 27 1 C31.95 1 36.9 1 42 1 C42 17.17 42 33.34 42 50 C30 50 30 50 26.52734375 46.640625 C25.6206379 45.20358177 24.75755194 43.73819473 23.9375 42.25 C23.49212891 41.52039062 23.04675781 40.79078125 22.58789062 40.0390625 C21.73788847 38.64561635 20.90271771 37.24297162 20.08544922 35.83007812 C18.86290359 33.76885409 17.49976099 31.86855467 16 30 C15.97494385 30.57032959 15.9498877 31.14065918 15.92407227 31.72827148 C15.80843451 34.29826157 15.68556376 36.86785527 15.5625 39.4375 C15.50352539 40.78424805 15.50352539 40.78424805 15.44335938 42.15820312 C15.40146484 43.01220703 15.35957031 43.86621094 15.31640625 44.74609375 C15.27974854 45.53685303 15.24309082 46.3276123 15.20532227 47.14233398 C15 49 15 49 14 50 C9.38 50 4.76 50 0 50 C0 33.5 0 17 0 0 Z " fill="#FFFFFF" transform="translate(319,1124)"/>
<path d="M0 0 C1.58361328 -0.04350586 1.58361328 -0.04350586 3.19921875 -0.08789062 C11.81356454 -0.15727507 17.50502033 1.82987153 24.6875 6.4375 C29.2689742 11.33861194 31.54185987 17.15606452 31.8125 23.875 C31.37284251 31.67892044 28.86454368 37.91787749 23.43359375 43.5859375 C15.77596768 50.00846259 5.99656193 50.35943445 -3.625 50.3125 C-7.255 49.9825 -10.885 49.6525 -14.625 49.3125 C-14.625 33.4725 -14.625 17.6325 -14.625 1.3125 C-9.84927911 -0.27940696 -5.00223887 0.04482293 0 0 Z M0.375 12.3125 C0.375 20.5625 0.375 28.8125 0.375 37.3125 C9.21041631 37.7486892 9.21041631 37.7486892 15.375 33.3125 C18.04436036 28.83486326 18.94823064 25.23685061 17.99609375 20.171875 C16.85317793 16.75031569 15.31871843 15.35508014 12.375 13.3125 C6.32734745 11.26107665 6.32734745 11.26107665 0.375 12.3125 Z " fill="#FFFFFF" transform="translate(159.625,1124.6875)"/>
<path d="M0 0 C6.20695515 3.8591069 9.97827515 9.12682939 11.96875 16.1171875 C13.71870502 24.77946485 11.96426548 32.66891613 7.375 40.1875 C3.17534802 45.51782751 -2.36299832 48.02395897 -9.0078125 48.8828125 C-17.38897512 49.15434045 -24.23971194 48.34463536 -30.59375 42.6015625 C-36.89681603 35.85934842 -37.9839832 29.70398305 -37.80859375 20.625 C-37.23033864 13.13521956 -34.2416823 7.38954637 -28.5625 2.4375 C-20.78682512 -3.08860856 -8.67442441 -3.85344623 0 0 Z M-21.5625 14.4375 C-23.93884512 18.51123449 -24.15063824 22.82287686 -23.5625 27.4375 C-22.02285204 31.51756708 -20.53338264 34.45205868 -16.5625 36.4375 C-12.84555767 36.84298462 -10.30536674 36.7245167 -6.8125 35.375 C-3.8318016 32.80828749 -2.38753454 30.22681792 -1.5625 26.4375 C-1.29677977 20.32593482 -2.69505637 16.12531046 -6.5625 11.4375 C-12.19677304 8.62036348 -17.48395853 9.99908722 -21.5625 14.4375 Z " fill="#FFFFFF" transform="translate(265.5625,1126.5625)"/>
<path d="M0 0 C1.65322266 0.01740234 1.65322266 0.01740234 3.33984375 0.03515625 C4.44457031 0.04417969 5.54929687 0.05320312 6.6875 0.0625 C7.54214844 0.07410156 8.39679687 0.08570313 9.27734375 0.09765625 C12.24157393 5.80457596 14.71037931 11.53382036 16.94921875 17.55859375 C17.27649963 18.43037262 17.60378052 19.30215149 17.940979 20.2003479 C18.62537007 22.02648969 19.30761509 23.85343709 19.98779297 25.68115234 C21.03289882 28.48757328 22.08627406 31.29079104 23.140625 34.09375 C23.80647918 35.87351482 24.47186092 37.65345648 25.13671875 39.43359375 C25.61005646 40.692892 25.61005646 40.692892 26.09295654 41.97763062 C28.27734375 47.86693386 28.27734375 47.86693386 28.27734375 50.09765625 C23.65734375 50.09765625 19.03734375 50.09765625 14.27734375 50.09765625 C12.62734375 45.80765625 10.97734375 41.51765625 9.27734375 37.09765625 C5.31734375 36.76765625 1.35734375 36.43765625 -2.72265625 36.09765625 C-3.17640625 37.66515625 -3.63015625 39.23265625 -4.09765625 40.84765625 C-5.07417357 44.22107972 -6.13230123 46.91694621 -7.72265625 50.09765625 C-12.34265625 50.09765625 -16.96265625 50.09765625 -21.72265625 50.09765625 C-17.63799674 38.12249407 -13.32505032 26.24317776 -8.84765625 14.41015625 C-8.60123383 13.75624908 -8.3548114 13.10234192 -8.10092163 12.42861938 C-7.39720348 10.56321987 -6.68893411 8.69953923 -5.98046875 6.8359375 C-5.56941895 5.75352783 -5.15836914 4.67111816 -4.73486328 3.5559082 C-3.31971533 0.11907157 -3.31971533 0.11907157 0 0 Z M3.27734375 21.09765625 C0.99999365 23.91275618 0.99999365 23.91275618 1.27734375 27.09765625 C2.59734375 27.09765625 3.91734375 27.09765625 5.27734375 27.09765625 C4.94734375 25.11765625 4.61734375 23.13765625 4.27734375 21.09765625 C3.94734375 21.09765625 3.61734375 21.09765625 3.27734375 21.09765625 Z " fill="#FFFFFF" transform="translate(622.72265625,1123.90234375)"/>
<path d="M0 0 C10.56 0 21.12 0 32 0 C32 3.63 32 7.26 32 11 C25.07 11 18.14 11 11 11 C11 12.98 11 14.96 11 17 C17.93 17 24.86 17 32 17 C32 20.63 32 24.26 32 28 C25.07 28 18.14 28 11 28 C11 30.31 11 32.62 11 35 C17.93 35 24.86 35 32 35 C32.09765625 45.05859375 32.09765625 45.05859375 32 48 C31 49 31 49 28.04077148 49.11352539 C26.74727783 49.10828857 25.45378418 49.10305176 24.12109375 49.09765625 C22.86482178 49.09515869 21.6085498 49.09266113 20.31420898 49.09008789 C18.70489502 49.08098389 17.09558105 49.07187988 15.4375 49.0625 C10.343125 49.041875 5.24875 49.02125 0 49 C0 32.83 0 16.66 0 0 Z " fill="#FFFFFF" transform="translate(406,1125)"/>
<path d="M0 0 C-0.47690204 1.62566606 -0.95659666 3.25051311 -1.4375 4.875 C-1.70433594 5.77992187 -1.97117187 6.68484375 -2.24609375 7.6171875 C-3 10 -3 10 -4 12 C-4.99 11.67 -5.98 11.34 -7 11 C-11.08594833 9.8134874 -14.76342394 9.85134821 -19 10 C-19.33 10.99 -19.66 11.98 -20 13 C-19.1646875 13.23783203 -19.1646875 13.23783203 -18.3125 13.48046875 C-11.39793714 15.59454962 -3.7514475 18.37979854 0 25 C1.56840852 29.70522555 1.54895539 33.52648816 -0.1875 38.1875 C-3.20695269 42.87285762 -6.77001502 45.26409009 -12 47 C-20.96449309 47.9413265 -27.92005332 46.91754991 -36 43 C-34.68 39.04 -33.36 35.08 -32 31 C-30.659375 31.495 -29.31875 31.99 -27.9375 32.5 C-23.82778903 33.87422512 -20.36331768 34.3561892 -16 34 C-15.01 33.505 -15.01 33.505 -14 33 C-14 32.01 -14 31.02 -14 30 C-14.79664063 29.69707031 -15.59328125 29.39414063 -16.4140625 29.08203125 C-23.21421382 26.39340694 -28.85994076 24.139169 -33.375 18.1875 C-34.82957541 13.09648605 -34.71015016 9.3676966 -32.3125 4.75 C-23.95909439 -5.18377964 -11.32839777 -5.43763093 0 0 Z " fill="#FFFFFF" transform="translate(514,1128)"/>
<path d="M0 0 C4.95 0 9.9 0 15 0 C15 16.5 15 33 15 50 C10.05 50 5.1 50 0 50 C0 33.5 0 17 0 0 Z " fill="#FFFFFF" transform="translate(553,1124)"/>
<path d="M0 0 C4.62 0 9.24 0 14 0 C14 16.5 14 33 14 50 C9.05 50 4.1 50 -1 50 C-1.02464201 43.03996034 -1.04283222 36.07994584 -1.05493164 29.11987305 C-1.05997341 26.75007688 -1.06680665 24.38028385 -1.07543945 22.01049805 C-1.0875119 18.61245961 -1.09322971 15.21446215 -1.09765625 11.81640625 C-1.10281754 10.74975235 -1.10797882 9.68309845 -1.11329651 8.5841217 C-1.11337204 7.60318039 -1.11344757 6.62223907 -1.11352539 5.61157227 C-1.115746 4.74331314 -1.11796661 3.87505402 -1.12025452 2.98048401 C-1 1 -1 1 0 0 Z " fill="#FFFFFF" transform="translate(4,1124)"/>
</svg>
