<?xml version="1.0" encoding="UTF-8"?>
<svg version="1.1" xmlns="http://www.w3.org/2000/svg" width="3688" height="1326">
<path d="M0 0 C81.51 0 163.02 0 247 0 C245.37056465 3.25887069 244.11386468 5.14249567 241.8125 7.8125 C230.66465152 22.05954288 226.18073716 41.07887747 222.75 58.5 C222.59893799 59.25619629 222.44787598 60.01239258 222.29223633 60.79150391 C219.14925591 77.96178497 218.69756329 95.25485326 218.68115234 112.65917969 C218.67182898 114.95767052 218.66165683 117.25615804 218.65071106 119.55464172 C218.6236682 125.72887331 218.60833891 131.90308242 218.59528303 138.07735729 C218.5795386 144.55422193 218.55278512 151.03104142 218.5272522 157.50787354 C218.48593976 168.35761179 218.45128987 179.20735211 218.421875 190.05712891 C218.39158855 201.22153513 218.35717081 212.3859164 218.31738281 223.55029297 C218.3149013 224.24801123 218.3124198 224.94572948 218.30986309 225.66459072 C218.28823477 231.73582465 218.26629816 237.80705746 218.24433136 243.87829018 C218.15050998 269.91883178 218.07689953 295.95939019 218 322 C290.27 322 362.54 322 437 322 C436.855625 286.48375 436.71125 250.9675 436.5625 214.375 C436.51939697 203.19415527 436.47629395 192.01331055 436.43188477 180.49365234 C436.3885936 170.40034222 436.3885936 170.40034222 436.34410095 160.30703735 C436.3244402 155.83967678 436.3072933 151.37231445 436.29173279 146.90493774 C436.27170793 141.18031322 436.2472169 135.45572309 436.21969402 129.73112988 C436.21039546 127.64658467 436.20257539 125.56203212 436.19653046 123.47747493 C436.16508577 96.88858556 436.16508577 96.88858556 433.75 70.4375 C433.55821167 69.0297229 433.55821167 69.0297229 433.36254883 67.59350586 C430.03465675 44.5683511 424.04749945 19.61310915 408 2 C408 1.34 408 0.68 408 0 C489.51 0 571.02 0 655 0 C653.37056465 3.25887069 652.11386468 5.14249567 649.8125 7.8125 C638.66465152 22.05954288 634.18073716 41.07887747 630.75 58.5 C630.59893799 59.25619629 630.44787598 60.01239258 630.29223633 60.79150391 C626.9936291 78.8119831 626.70892445 96.91631228 626.73930359 115.17860413 C626.73627749 117.77937267 626.73238573 120.38014032 626.72771102 122.98090643 C626.71901334 128.60215531 626.71761375 134.22336774 626.72121429 139.84462166 C626.72655462 148.20444285 626.72039273 156.56422917 626.71213136 164.92404657 C626.69694024 180.72904136 626.69518129 196.53402005 626.69765439 212.33902062 C626.69949154 224.55036607 626.6977186 236.76170628 626.69342995 248.97305107 C626.69282753 250.73138201 626.69222633 252.48971294 626.69162634 254.24804388 C626.69071903 256.89814132 626.68981035 259.54823877 626.68889399 262.19833621 C626.68047164 286.81897448 626.67612375 311.43961078 626.68030071 336.06025028 C626.68045709 336.98723389 626.68061346 337.9142175 626.68077458 338.86929151 C626.68158028 343.56692259 626.68242606 348.26455367 626.68328788 352.96218473 C626.68345897 353.89504054 626.68363006 354.82789634 626.68380633 355.78902051 C626.68415299 357.67547942 626.68450152 359.56193834 626.68485192 361.44839725 C626.69020675 390.78877087 626.68228252 420.12911441 626.66381836 449.46948242 C626.64306599 482.48406641 626.63238188 515.49863177 626.63639385 548.51322263 C626.63678915 552.03889461 626.6371507 555.56456659 626.63749123 559.09023857 C626.63758196 559.9582561 626.63767269 560.82627362 626.63776617 561.72059471 C626.63892835 574.77972648 626.63231282 587.83883934 626.62167931 600.89796638 C626.60958558 615.76494619 626.60811607 630.63188455 626.62046947 645.49886502 C626.62706035 653.80057995 626.62555507 662.10219557 626.61188096 670.40390239 C626.60257199 676.63087111 626.60924507 682.85773258 626.62172876 689.0846936 C626.62435749 691.58254074 626.62206749 694.08039969 626.61399289 696.57823516 C626.49482135 736.23707073 630.60216168 776.46954891 655 809 C573.16 809 491.32 809 407 809 C408.98 806.69 410.96 804.38 413 802 C425.46356664 783.32756101 430.75231516 761.56630004 433.75 739.5625 C433.92341919 738.31617798 433.92341919 738.31617798 434.1003418 737.04467773 C436.34418062 718.87759086 436.15594699 700.3878684 436.20532227 682.11376953 C436.21493206 679.81498552 436.22494379 677.51620316 436.23532104 675.21742249 C436.26204089 669.05157729 436.28322577 662.88572469 436.30332303 656.71985483 C436.325389 650.24835312 436.35267556 643.77687334 436.37937927 637.3053894 C436.42340972 626.46759998 436.46428969 615.62980299 436.50268555 604.79199219 C436.5421988 593.64126709 436.58367185 582.49055203 436.62768555 571.33984375 C436.63180981 570.29407036 436.63180981 570.29407036 436.63601738 569.22717023 C436.65996012 563.16033847 436.68404882 557.0935073 436.70815182 551.02667618 C436.8112945 525.01780371 436.90487015 499.00890587 437 473 C364.73 473 292.46 473 218 473 C218.0907564 516.24125896 218.0907564 516.24125896 218.20898438 559.48242188 C218.22702968 565.33715754 218.24489292 571.19189371 218.26245117 577.04663086 C218.2657627 578.14705445 218.2657627 578.14705445 218.26914114 579.26970881 C218.30433957 591.05406505 218.3292942 602.83842124 218.35034702 614.62281028 C218.37224723 626.75140523 218.40542964 638.87993304 218.44870156 651.00847071 C218.47264118 657.80628709 218.49167934 664.60403745 218.49761391 671.40189552 C218.50373508 677.82299496 218.52398307 684.24390665 218.55427551 690.66493607 C218.56294461 692.9998525 218.56680199 695.33479358 218.56500816 697.66972542 C218.54438476 736.96213697 222.84916158 776.79888211 247 809 C165.16 809 83.32 809 -1 809 C0.98 806.69 2.96 804.38 5 802 C17.46356664 783.32756101 22.75231516 761.56630004 25.75 739.5625 C25.86561279 738.73161865 25.98122559 737.9007373 26.1003418 737.04467773 C28.40486136 718.38629348 28.14620938 699.41285807 28.12698364 680.64819336 C28.12813854 678.16175533 28.12972853 675.67531747 28.13171089 673.18887997 C28.1349931 667.82376972 28.13523375 662.45867275 28.13266373 657.09356308 C28.1288523 649.11491651 28.13082986 641.13627832 28.13387203 633.15763178 C28.13911642 618.90069352 28.13868994 604.64375975 28.13579312 590.38682106 C28.13327062 577.9098069 28.13262409 565.43279439 28.13381577 552.95578003 C28.13389215 552.12590428 28.13396854 551.29602854 28.13404724 550.44100504 C28.13435861 547.07167898 28.13467701 543.70235292 28.135007 540.33302685 C28.13806121 508.771117 28.13530015 477.20921 28.1299101 445.64730059 C28.12516503 417.64930563 28.12558968 389.65131523 28.13037109 361.65332031 C28.13573383 330.14655901 28.13784455 298.63980022 28.13475883 267.13303852 C28.13443815 263.770099 28.1341253 260.40715949 28.13381577 257.04421997 C28.13373669 256.2162697 28.13365761 255.38831942 28.13357614 254.53527974 C28.13244201 242.07070948 28.13376269 229.60614105 28.13629532 217.14157104 C28.1391628 202.95888731 28.13842228 188.77620875 28.13301457 174.59352565 C28.13009277 166.67070631 28.12986552 158.74789821 28.13366075 150.82507918 C28.13618894 144.88913956 28.13341871 138.95320968 28.12868617 133.01727116 C28.12757793 130.63128143 28.12811735 128.24529018 28.13056196 125.85930145 C28.22236224 98.07940357 28.22236224 98.07940357 25.75 70.4375 C25.62214111 69.49898193 25.49428223 68.56046387 25.36254883 67.59350586 C22.03465675 44.5683511 16.04749945 19.61310915 0 2 C0 1.34 0 0.68 0 0 Z " fill="#314528" transform="translate(1014,27)"/>
<path d="M0 0 C2.12426966 0.01175602 4.24850412 0.0182428 6.37279892 0.02360535 C27.30361514 0.0853109 47.99100743 0.66127421 68.76919174 3.38652039 C70.55389877 3.60332458 70.55389877 3.60332458 72.37466049 3.82450867 C116.76584265 9.24143265 160.17343933 20.5016943 200.76919174 39.38652039 C201.62706284 39.78451843 202.48493393 40.18251648 203.36880112 40.59257507 C228.17912243 52.23492801 250.12695349 67.4775992 270.76919174 85.38652039 C271.90807846 86.3397821 271.90807846 86.3397821 273.06997299 87.31230164 C277.51208554 91.06437728 281.33663275 95.13709847 285.10512924 99.56620789 C286.65299053 101.47775704 286.65299053 101.47775704 288.76919174 102.38652039 C288.15236365 107.22614051 286.72493323 111.49191196 284.91762924 115.99198914 C284.3152917 117.5246727 283.71325541 119.05747467 283.1114769 120.59037781 C282.79172897 121.39929474 282.47198105 122.20821167 282.14254379 123.04164124 C264.26240324 168.39567752 249.35376624 214.88677613 234.76919174 261.38652039 C231.27575538 260.2220416 231.08554416 259.67115796 229.26919174 256.63652039 C225.40801972 250.60463971 220.78727679 245.30372586 216.0958519 239.91288757 C214.91023276 238.54879283 213.73544635 237.17530012 212.56216049 235.80058289 C208.29010486 230.86286178 203.76569165 226.57713321 198.76919174 222.38652039 C197.36733627 221.15288757 197.36733627 221.15288757 195.93716049 219.89433289 C145.79974691 175.99940264 78.24187788 157.98164312 12.51528549 161.94902039 C-49.47396816 166.35789874 -109.88539409 190.66971862 -151.51987076 237.98808289 C-153.81996215 240.74331603 -156.03710262 243.54585749 -158.23080826 246.38652039 C-158.65329849 246.9272821 -159.07578873 247.46804382 -159.5110817 248.02519226 C-176.53907793 269.94142993 -188.89251168 294.97674834 -197.23080826 321.38652039 C-197.49345474 322.19991882 -197.75610123 323.01331726 -198.0267067 323.85136414 C-218.32031475 387.36609292 -219.49225304 473.58256476 -189.23080826 534.38652039 C-188.57080826 534.71652039 -187.91080826 535.04652039 -187.23080826 535.38652039 C-187.25437393 534.03010437 -187.25437393 534.03010437 -187.27841568 532.64628601 C-187.55830779 514.00570773 -187.47808492 495.8127005 -184.23080826 477.38652039 C-184.07515396 476.47531433 -183.91949966 475.56410828 -183.75912857 474.62528992 C-174.30468267 421.17275893 -146.52561985 369.85193249 -103.23080826 336.38652039 C-102.7006813 335.96934753 -102.17055435 335.55217468 -101.62436295 335.12236023 C-85.40273838 322.41714703 -67.50674514 312.6134472 -48.23080826 305.38652039 C-47.50361588 305.11114441 -46.77642349 304.83576843 -46.02719498 304.55204773 C-37.04741722 301.20806315 -27.9588036 298.70904157 -18.60580826 296.63652039 C-17.71281021 296.43776306 -16.81981216 296.23900574 -15.89975357 296.03422546 C-1.05393555 292.91167827 13.52140165 291.97678882 28.64419174 292.01152039 C29.98847748 292.01233612 29.98847748 292.01233612 31.3599205 292.01316833 C69.61912393 292.1194498 118.49053578 300.79536443 146.83169174 329.13652039 C152.01310349 334.45917578 154.06983816 337.42578471 154.00970078 344.8465271 C154.01226405 345.99580845 154.01226405 345.99580845 154.01487911 347.1683076 C154.0181812 349.74333671 154.00715856 352.31810696 153.99624252 354.89311218 C153.99567856 356.73589573 153.99599467 358.57867973 153.99712753 360.42146301 C153.99770265 365.43149532 153.98592271 370.44143236 153.97197962 375.45144248 C153.95949864 380.6845017 153.95830384 385.91756296 153.9559288 391.15063477 C153.94970628 401.06348523 153.93328503 410.97629171 153.91322982 420.88912278 C153.89089483 432.17313113 153.87988344 443.45714154 153.86983895 454.74116647 C153.84891947 477.95630885 153.8137285 501.17141216 153.76919174 524.38652039 C150.69978548 522.91537754 148.04493544 521.19375304 145.30703354 519.16435242 C86.24202604 475.41930512 9.64976921 461.7123206 -62.08285904 471.90653992 C-93.97161067 476.76874604 -133.49319596 486.72578168 -153.87680435 513.9954071 C-164.76290144 529.31067388 -167.39701633 546.45646164 -164.89828873 564.83183289 C-164.02605417 569.47296974 -162.73412487 573.91310949 -161.23080826 578.38652039 C-160.79768326 579.68782898 -160.79768326 579.68782898 -160.35580826 581.01542664 C-157.08912956 589.40087418 -150.67909982 596.26891045 -144.23080826 602.38652039 C-143.12579053 603.51068446 -142.02170113 604.63576144 -140.91830826 605.76152039 C-95.40932709 651.07601873 -31.0256121 671.66854554 32.24282455 671.56987 C94.55607322 670.86504433 155.28235203 650.85305497 201.15200424 607.81620789 C203.24980554 605.86869683 205.37228947 604.01564003 207.58169174 602.19902039 C213.69470733 596.9948944 218.49811708 590.53294925 223.45669174 584.26152039 C223.92043198 583.67564148 224.38417221 583.08976257 224.86196518 582.48612976 C227.03511162 579.71063532 229.08742812 576.93454463 230.97622299 573.95683289 C231.56790268 573.10862976 232.15958237 572.26042664 232.76919174 571.38652039 C233.42919174 571.38652039 234.08919174 571.38652039 234.76919174 571.38652039 C234.96113113 571.98870392 235.15307053 572.59088745 235.35082626 573.21131897 C256.14369509 639.82178628 256.14369509 639.82178628 280.32778549 705.24198914 C280.6147731 705.94921616 280.90176071 706.65644318 281.19744492 707.38510132 C282.54311251 710.69077557 283.90594949 713.98731808 285.30434799 717.27104187 C285.77614487 718.40485291 286.24794174 719.53866394 286.73403549 720.70683289 C287.36233261 722.18047302 287.36233261 722.18047302 288.0033226 723.68388367 C288.87732981 726.76812331 288.7986493 728.36815961 287.76919174 731.38652039 C286.54507065 733.09648132 286.54507065 733.09648132 284.99575424 734.62089539 C284.42389389 735.19033875 283.85203354 735.7597821 283.26284409 736.34648132 C282.64618881 736.93719421 282.02953354 737.5279071 281.39419174 738.13652039 C280.76077866 738.75559265 280.12736557 739.37466492 279.47475815 740.01249695 C274.9962151 744.33886197 270.35556135 748.39256855 265.46450424 752.24980164 C262.58187991 754.53501252 259.80807372 756.92558189 257.01919174 759.32402039 C250.30080761 764.92411864 243.15567644 769.71624496 235.76919174 774.38652039 C234.89834946 774.94073669 234.89834946 774.94073669 234.0099144 775.50614929 C171.30252182 815.12298993 93.23179128 833.3354728 19.45669174 833.58964539 C18.80089127 833.59247276 18.14509079 833.59530014 17.46941757 833.5982132 C13.98535413 833.61306753 10.50133047 833.62237833 7.01723862 833.62675476 C4.21371763 833.63109557 1.41051202 833.64483473 -1.39291763 833.66777039 C-84.60005244 834.33376712 -167.29916061 811.32192828 -235.23080826 762.38652039 C-235.89032486 761.91246765 -236.54984146 761.43841492 -237.22934341 760.94999695 C-247.36761054 753.6163483 -256.92637705 745.74817792 -266.23080826 737.38652039 C-266.78865005 736.88652527 -267.34649185 736.38653015 -267.92123795 735.87138367 C-274.30938077 730.12205513 -280.5117603 724.19639155 -286.60580826 718.13652039 C-287.16469742 717.58230408 -287.72358658 717.02808777 -288.29941177 716.45707703 C-327.81475898 676.78900216 -356.39586766 625.72295368 -375.23080826 573.38652039 C-375.58626724 572.40924988 -375.94172623 571.43197937 -376.3079567 570.4250946 C-393.88178746 521.65565157 -401.4474609 469.41116915 -401.48080826 417.69902039 C-401.481483 416.74620178 -401.48215775 415.79338318 -401.48285294 414.81169128 C-401.42611938 363.76845557 -393.49711698 313.82477452 -377.23080826 265.38652039 C-376.73411636 263.90466248 -376.73411636 263.90466248 -376.22739029 262.39286804 C-359.7450358 213.86660651 -333.90751337 168.97773919 -300.23080826 130.38652039 C-299.46123795 129.50351257 -298.69166763 128.62050476 -297.89877701 127.71073914 C-291.89891517 121.01299352 -285.58794113 114.61644692 -279.25510025 108.23558044 C-278.25591965 107.22835807 -277.25822385 106.21966008 -276.26218033 105.20933533 C-269.6034533 98.46535543 -262.65972161 92.28490925 -255.23080826 86.38652039 C-254.0568788 85.41007297 -252.88579174 84.43018562 -251.71908951 83.44511414 C-235.55397604 70.00858725 -217.58524389 58.59116866 -199.23080826 48.38652039 C-198.53342545 47.99335632 -197.83604263 47.60019226 -197.11752701 47.19511414 C-137.27347035 13.66087698 -68.12665117 -0.40752796 0 0 Z " fill="#324629" transform="translate(2409.2308082580566,14.613479614257813)"/>
<path d="M0 0 C215.16 0 430.32 0 652 0 C651.13043799 4.34781006 650.44768841 6.33132756 648.26171875 9.96484375 C647.69517578 10.91810547 647.12863281 11.87136719 646.54492188 12.85351562 C645.93197266 13.87123047 645.31902344 14.88894531 644.6875 15.9375 C639.97246368 23.88240829 635.37337293 31.86188497 631 40 C626.26095714 48.79654583 621.27960904 57.42896106 616.2109375 66.0390625 C612.34634338 72.62759961 608.62351093 79.27615886 605 86 C600.25981596 94.79595649 595.27963619 103.42891494 590.2109375 112.0390625 C586.34634338 118.62759961 582.62351093 125.27615886 579 132 C574.25981596 140.79595649 569.27963619 149.42891494 564.2109375 158.0390625 C560.34634338 164.62759961 556.62351093 171.27615886 553 178 C548.25981596 186.79595649 543.27963619 195.42891494 538.2109375 204.0390625 C534.34634338 210.62759961 530.62351093 217.27615886 527 224 C522.25981596 232.79595649 517.27963619 241.42891494 512.2109375 250.0390625 C508.34634338 256.62759961 504.62351093 263.27615886 501 270 C496.25981596 278.79595649 491.27963619 287.42891494 486.2109375 296.0390625 C482.34634338 302.62759961 478.62351093 309.27615886 475 316 C470.81801633 323.76015151 466.47194676 331.40330639 462 339 C456.96365702 347.55764928 452.11397396 356.19278179 447.39404297 364.9284668 C443.57847837 371.97808623 439.6352687 378.94615134 435.64013672 385.89526367 C431.71078067 392.73631456 427.84583773 399.611689 424 406.5 C419.22807986 415.04399079 414.40839831 423.55808637 409.5390625 432.046875 C405.64843038 438.84004219 401.81735795 445.66542899 398 452.5 C393.22791839 461.04390158 388.40839933 469.55808459 383.5390625 478.046875 C379.64843038 484.84004219 375.81735795 491.66542899 372 498.5 C367.22791839 507.04390158 362.40839933 515.55808459 357.5390625 524.046875 C353.64843038 530.84004219 349.81735795 537.66542899 346 544.5 C341.22791839 553.04390158 336.40839933 561.55808459 331.5390625 570.046875 C327.64843038 576.84004219 323.81735795 583.66542899 320 590.5 C315.26760266 598.97285114 310.49087528 607.41783828 305.65991211 615.83483887 C301.60265497 622.91659027 297.60784846 630.03243911 293.625 637.15625 C292.98433594 638.30125977 292.34367187 639.44626953 291.68359375 640.62597656 C290.12197332 643.41708173 288.5607833 646.20842666 287 649 C313.80124408 648.93922041 340.60239444 648.86154994 367.40353203 648.76428509 C379.85039289 648.71949897 392.29722624 648.68004565 404.74414062 648.65356445 C415.60475047 648.63044418 426.46527195 648.59689244 437.32581151 648.55129844 C443.06557744 648.52755359 448.80525689 648.50870306 454.54507065 648.50238609 C499.25674821 648.44658779 543.11855328 645.98775655 584 626 C584.99555908 625.51660156 584.99555908 625.51660156 586.01123047 625.0234375 C596.58252543 619.82366032 607.46142634 613.7221287 615.7109375 605.19921875 C618 603 618 603 621 603 C621.02332561 629.84179182 621.04097751 656.68358214 621.05181217 683.52538204 C621.05697585 695.98754655 621.06401991 708.44970476 621.07543945 720.91186523 C621.08538411 731.76961778 621.0918529 742.62736577 621.09408849 753.48512274 C621.09539597 759.2380575 621.09848417 764.99097924 621.10573006 770.74390984 C621.11248683 776.15200976 621.11461767 781.56009122 621.11310768 786.96819496 C621.11338416 788.95928421 621.11539131 790.95037404 621.11920547 792.94145966 C621.12413737 795.64739253 621.12300016 798.35325453 621.12025452 801.05918884 C621.12316736 801.85781135 621.1260802 802.65643386 621.12908131 803.47925705 C621.11412121 808.88587879 621.11412121 808.88587879 620 810 C618.59129084 810.09698038 617.17773416 810.12447391 615.76569074 810.1241985 C614.84462302 810.12644579 613.92355531 810.12869308 612.97457644 810.13100848 C611.43593882 810.12706796 611.43593882 810.12706796 609.86621761 810.12304783 C608.24111555 810.1247786 608.24111555 810.1247786 606.58318314 810.12654433 C602.90374272 810.12921961 599.22434488 810.12468138 595.54490662 810.12025452 C592.90004538 810.12069003 590.25518701 810.12152219 587.61032635 810.12284368 C581.83459889 810.12492326 576.05888171 810.12326373 570.28315544 810.11920547 C561.69476872 810.11318763 553.10638851 810.11286807 544.51800007 810.11374746 C530.07322588 810.11506356 515.62845625 810.11171163 501.1836834 810.10573006 C486.87460749 810.09981982 472.56553349 810.09596548 458.25645638 810.09487724 C457.36787683 810.0948085 456.47929728 810.09473976 455.56379108 810.09466894 C451.05143125 810.09433062 446.53907142 810.09402923 442.02671159 810.09374207 C410.03774458 810.09163978 378.04878006 810.08489719 346.05981445 810.07543945 C314.97648125 810.06626005 283.89314873 810.05917398 252.80981445 810.05493164 C251.85225614 810.05480011 250.89469783 810.05466859 249.90812259 810.05453308 C240.29222287 810.05321459 230.67632314 810.05193877 221.0604234 810.05069422 C201.4704631 810.04815778 181.88050284 810.04533652 162.2905426 810.04234314 C161.38976149 810.04220585 160.48898038 810.04206856 159.56090288 810.04192711 C99.37393422 810.03272123 39.18696694 810.01687543 -21 810 C-21.33 809.34 -21.66 808.68 -22 808 C-20.95874023 805.67529297 -20.95874023 805.67529297 -19.30859375 802.7421875 C-18.70055908 801.65381592 -18.09252441 800.56544434 -17.46606445 799.4440918 C-16.79013369 798.25424827 -16.11393872 797.06455482 -15.4375 795.875 C-14.74843929 794.64977806 -14.05988713 793.42426999 -13.37182617 792.19848633 C-8.37051627 783.31339129 -3.23542768 774.50757798 1.93334961 765.71899414 C6.31347111 758.24745931 10.49247639 750.68182533 14.61108398 743.0637207 C19.37340456 734.26828771 24.33161858 725.59190582 29.31933594 716.92285156 C32.51242187 711.3697393 35.69464922 705.81041227 38.875 700.25 C39.21494995 699.65580261 39.5548999 699.06160522 39.90515137 698.44940186 C45.22835265 689.14151758 50.48576772 679.79813024 55.71044922 670.43457031 C60.42415909 661.99866884 65.21268982 653.60685559 70.01849365 645.2232666 C74.77285769 636.92761669 79.4718684 628.60296745 84.125 620.25 C88.69584666 612.04593286 93.36594863 603.90877077 98.125 595.8125 C103.11844928 587.31408667 107.92326492 578.73460513 112.61083984 570.06420898 C117.37319659 561.26858851 122.33152805 552.59206316 127.31933594 543.92285156 C130.5124222 538.36973872 133.6944643 532.81030694 136.875 527.25 C137.21428528 526.65713196 137.55357056 526.06426392 137.90313721 525.45343018 C143.27922189 516.05620379 148.57729687 506.617453 153.84667969 497.15991211 C157.85278332 489.99190511 161.96391898 482.89148194 166.125 475.8125 C171.11844928 467.31408667 175.92326492 458.73460513 180.61083984 450.06420898 C185.37319659 441.26858851 190.33152805 432.59206316 195.31933594 423.92285156 C198.5124222 418.36973872 201.6944643 412.81030694 204.875 407.25 C205.38392792 406.36069794 205.38392792 406.36069794 205.90313721 405.45343018 C211.27922189 396.05620379 216.57729687 386.617453 221.84667969 377.15991211 C225.85278332 369.99190511 229.96391898 362.89148194 234.125 355.8125 C239.11627201 347.3177922 243.92030126 338.74270008 248.60424805 330.07519531 C252.9292678 322.08457585 257.42276167 314.1980747 261.94921875 306.3203125 C265.07754193 300.87512203 268.16589488 295.40782293 271.25 289.9375 C276.45077241 280.71744868 281.69880764 271.52494186 286.96026611 262.33944702 C291.73283965 254.00446281 296.45034721 245.64038555 301.125 237.25 C305.69590241 229.04596575 310.36586299 220.90872113 315.125 212.8125 C320.07752003 204.38558823 324.87195907 195.8917608 329.47900391 187.27075195 C332.76434361 181.15362278 336.21459358 175.14028184 339.70043945 169.13598633 C340.21061867 168.25605263 340.72079788 167.37611893 341.24643707 166.46952057 C342.49706157 164.31268622 343.74826405 162.15618943 345 160 C319.04240103 160.10761533 293.08482913 160.22044112 267.12727928 160.33933926 C255.07265502 160.39443598 243.01802781 160.44787709 230.96337891 160.49731445 C220.44710373 160.5404471 209.93084827 160.58679432 199.41460383 160.63687855 C193.85495505 160.66324771 188.29530959 160.68809085 182.73563766 160.70907402 C177.48422184 160.72894484 172.23284274 160.75316945 166.98146057 160.78049088 C165.0717652 160.78970311 163.16206188 160.79743187 161.25235367 160.80341911 C143.89499909 160.85942912 126.35408129 160.95076246 109.125 163.25 C108.14144531 163.37930908 107.15789063 163.50861816 106.14453125 163.6418457 C70.02269572 168.6303997 34.49065083 179.62948881 6.15625 203.3359375 C4 205 4 205 0 207 C0 138.69 0 70.38 0 0 Z " fill="#324629" transform="translate(3021,27)"/>
<path d="M0 0 C1.34353672 -0.00702052 2.68707309 -0.01410736 4.03060913 -0.02125549 C8.30947335 -0.04069016 12.58828361 -0.0456905 16.8671875 -0.046875 C17.59604156 -0.04731686 18.32489563 -0.04775871 19.07583618 -0.04821396 C41.42954911 -0.05532372 63.54597103 0.27869995 85.7421875 3.203125 C86.76143311 3.3339447 86.76143311 3.3339447 87.80126953 3.46740723 C132.10892198 9.15789984 176.37315042 19.70761847 216.7421875 39.203125 C217.80421387 39.71141846 217.80421387 39.71141846 218.88769531 40.22998047 C240.09488038 50.42555114 259.24861902 62.68132962 277.7421875 77.203125 C279.04349609 78.19505859 279.04349609 78.19505859 280.37109375 79.20703125 C281.54478516 80.10228516 281.54478516 80.10228516 282.7421875 81.015625 C283.4021875 81.51707031 284.0621875 82.01851563 284.7421875 82.53515625 C287.23406566 84.6133437 289.45604766 86.90032233 291.7421875 89.203125 C292.86096699 90.2357029 293.98356991 91.26414906 295.109375 92.2890625 C296.27889058 93.38515558 297.44815812 94.48151337 298.6171875 95.578125 C299.22304688 96.11695312 299.82890625 96.65578125 300.453125 97.2109375 C301.0203125 97.75234375 301.5875 98.29375 302.171875 98.8515625 C302.94893799 99.56578369 302.94893799 99.56578369 303.74169922 100.29443359 C305.38004587 103.42000562 304.48757593 105.83601038 303.7421875 109.203125 C302.92398368 111.61257309 302.0282661 113.99650897 301.07421875 116.35546875 C300.51220267 117.76441902 299.95036207 119.17343931 299.38867188 120.58251953 C298.94140747 121.69267426 298.94140747 121.69267426 298.48510742 122.82525635 C290.22394272 143.38333055 282.88040016 164.23352131 275.7421875 185.203125 C275.44401123 186.07809631 275.14583496 186.95306763 274.83862305 187.85455322 C266.67365948 211.83462011 258.89836442 235.90225474 251.7421875 260.203125 C250.4221875 260.203125 249.1021875 260.203125 247.7421875 260.203125 C246.35546875 258.62109375 246.35546875 258.62109375 245.0546875 256.390625 C216.18775405 210.2467239 161.75868438 180.47464731 110.015625 168.31640625 C97.04392968 165.44977017 84.01037343 163.04615383 70.7421875 162.203125 C69.8155127 162.14286133 68.88883789 162.08259766 67.93408203 162.02050781 C1.49022895 157.97544799 -63.95488896 174.62708662 -115.2578125 218.203125 C-116.38224458 219.12048822 -117.50714426 220.03727905 -118.6328125 220.953125 C-124.7247559 226.17479077 -129.96197611 232.19438756 -135.2578125 238.203125 C-136.0209375 239.05390625 -136.7840625 239.9046875 -137.5703125 240.78125 C-184.70119533 295.04377958 -198.91867342 371.07137867 -194.48779297 440.99853516 C-189.72777229 507.32553237 -165.57380731 569.23120208 -115.6953125 614.515625 C-104.67725547 623.93781266 -92.90677223 632.1440219 -80.2578125 639.203125 C-79.54286621 639.60772949 -78.82791992 640.01233398 -78.09130859 640.42919922 C-47.95704377 657.368733 -13.6540727 667.20304551 20.7421875 670.203125 C21.93070312 670.31398438 23.11921875 670.42484375 24.34375 670.5390625 C90.87915016 675.90248256 158.63202957 657.79007599 210.0703125 614.53515625 C232.21975315 595.23268912 232.21975315 595.23268912 248.7421875 571.203125 C249.7321875 571.533125 250.7221875 571.863125 251.7421875 572.203125 C252.8828125 574.9921875 252.8828125 574.9921875 253.9921875 578.828125 C254.2021637 579.53632385 254.41213989 580.24452271 254.628479 580.97418213 C255.09338391 582.54262337 255.55326411 584.1125601 256.00891113 585.68371582 C257.29771059 590.11180505 258.63735893 594.52443901 259.9765625 598.9375 C260.26891785 599.90218201 260.56127319 600.86686401 260.86248779 601.86077881 C271.1868962 635.72634408 282.77220961 669.23483188 295.32421875 702.3359375 C295.61175018 703.09495361 295.89928162 703.85396973 296.19552612 704.63598633 C297.59160325 708.29232414 299.03063017 711.92196827 300.55615234 715.52636719 C300.84221848 716.21004364 301.12828461 716.89372009 301.42301941 717.59811401 C302.19730731 719.43596887 302.98803383 721.26687417 303.7800293 723.09716797 C304.81532893 726.43923392 304.94578311 727.94892096 303.7421875 731.203125 C302.33447266 733.09667969 302.33447266 733.09667969 300.53125 734.875 C299.86939697 735.53459717 299.20754395 736.19419434 298.52563477 736.8737793 C297.45720337 737.90305542 297.45720337 737.90305542 296.3671875 738.953125 C295.6362085 739.66831299 294.90522949 740.38350098 294.15209961 741.12036133 C288.60114009 746.49783428 282.87431838 751.49612413 276.7421875 756.203125 C275.47972804 757.20479631 274.21806923 758.20747722 272.95703125 759.2109375 C207.47087742 810.86939939 117.98880412 833.11523462 35.5859375 833.40625 C34.28233276 833.41195007 32.97872803 833.41765015 31.63562012 833.42352295 C28.88940049 833.4339212 26.14320908 833.43983353 23.39697266 833.44335938 C20.65562296 833.44769861 17.91459608 833.46143424 15.17333984 833.484375 C-46.71654776 833.99095444 -107.23111402 821.70554303 -163.2578125 795.203125 C-164.58643311 794.57905762 -164.58643311 794.57905762 -165.94189453 793.94238281 C-205.34166221 775.28906686 -239.8322926 748.5807008 -270.6328125 717.953125 C-271.19162109 717.39898926 -271.75042969 716.84485352 -272.32617188 716.27392578 C-311.84162581 676.60576647 -340.42282346 625.5396929 -359.2578125 573.203125 C-359.61327148 572.22585449 -359.96873047 571.24858398 -360.33496094 570.24169922 C-377.9087917 521.47225619 -385.47446514 469.22777376 -385.5078125 417.515625 C-385.50848724 416.5628064 -385.50916199 415.60998779 -385.50985718 414.6282959 C-385.45311328 363.57575647 -377.50720129 313.65466406 -361.2578125 265.203125 C-360.93200195 264.22585449 -360.60619141 263.24858398 -360.27050781 262.24169922 C-345.03973984 217.10969817 -321.46948401 174.43842368 -290.76220703 138 C-289.38429763 136.35420104 -288.03446623 134.68987195 -286.69140625 133.015625 C-279.72764834 124.46889503 -271.96405742 116.69691196 -264.1953125 108.890625 C-263.64050201 108.33054749 -263.08569153 107.77046997 -262.5140686 107.19342041 C-255.42746532 100.05489152 -248.14792538 93.46194539 -240.2578125 87.203125 C-239.00959814 86.15534253 -237.76555651 85.10255184 -236.52734375 84.04296875 C-220.1882513 70.23864741 -202.02294634 58.70976118 -183.33642578 48.35546875 C-181.42637458 47.29657262 -179.52725707 46.22029562 -177.62890625 45.140625 C-124.56557916 15.73346272 -60.58315868 0.21414151 0 0 Z " fill="#324629" transform="translate(399.2578125,14.796875)"/>
<path d="M0 0 C11.06701873 -0.069922 22.13398375 -0.12302353 33.2011795 -0.15543652 C38.34171933 -0.17100357 43.48210656 -0.19207542 48.62255859 -0.22631836 C53.59576387 -0.25923482 58.5688236 -0.27692012 63.54212952 -0.28463173 C65.42686754 -0.29011792 67.31159881 -0.30082848 69.1962738 -0.31719017 C90.48170418 -0.49440397 111.66947718 1.77182509 128.03125 16.875 C135.98301825 25.23109545 138.34924832 35.42118663 138.2109375 46.6796875 C137.58008845 56.60971881 134.93295565 64.99476798 129 73 C128.54367187 73.62390625 128.08734375 74.2478125 127.6171875 74.890625 C120.81599461 82.79567642 108.95326816 87.5696928 99 90 C96.0625 90.125 96.0625 90.125 94 90 C96.28577213 94.10227979 99.05991843 97.59229156 102.125 101.125 C103.11793905 102.28321028 104.11011605 103.44207427 105.1015625 104.6015625 C105.59301758 105.17551758 106.08447266 105.74947266 106.59082031 106.34082031 C108.59443073 108.6998876 110.54856463 111.09769148 112.5 113.5 C115.78823612 117.53983295 119.12726442 121.53087671 122.5 125.5 C125.89116049 129.49163573 129.25135166 133.50386138 132.5625 137.5625 C133.64917969 138.88507813 133.64917969 138.88507813 134.7578125 140.234375 C136.3386553 142.18426473 137.89370409 144.15520593 139.4296875 146.140625 C149.08791759 158.48968643 159.3174811 162.15052289 174 166 C174.02689216 167.47906892 174.04634621 168.95827483 174.0625 170.4375 C174.07990234 171.67306641 174.07990234 171.67306641 174.09765625 172.93359375 C174 175 174 175 173 176 C171.67384106 176.15467529 170.33988181 176.24347832 169.00610352 176.30395508 C168.15754288 176.34261185 167.30898224 176.38126862 166.43470764 176.4210968 C162.51533195 176.55859819 158.59605902 176.65734716 154.67504883 176.73461914 C152.61540153 176.78615475 150.55619352 176.86100732 148.49829102 176.96020508 C130.50175511 177.81206917 130.50175511 177.81206917 125.58520508 173.56542969 C122.91908467 170.67296122 120.96965285 167.39769702 119 164 C117.87911751 162.51569618 116.73713123 161.04687853 115.56640625 159.6015625 C114.56264733 158.27790115 113.56133549 156.9523805 112.5625 155.625 C111.44866018 154.15698765 110.33406569 152.68954762 109.21875 151.22265625 C108.67605469 150.50867676 108.13335938 149.79469727 107.57421875 149.05908203 C105.2647043 146.0382314 102.9180577 143.04751144 100.5625 140.0625 C96.95948522 135.49563405 93.3730362 130.91659132 89.80444336 126.32275391 C88.60698105 124.78133104 87.40858435 123.24063359 86.20922852 121.70068359 C83.41778483 118.11646528 80.63441881 114.52691451 77.875 110.91796875 C76.91669665 109.67445606 75.95836499 108.43096519 75 107.1875 C74.57976562 106.63126953 74.15953125 106.07503906 73.7265625 105.50195312 C69.00463515 99.40405013 63.97952781 94.71232112 56.10546875 93.5859375 C55.14253906 93.51632812 54.17960937 93.44671875 53.1875 93.375 C51.72376953 93.26285156 51.72376953 93.26285156 50.23046875 93.1484375 C49.12638672 93.07496094 49.12638672 93.07496094 48 93 C48.03817467 100.68513076 48.09770626 108.36985047 48.18390274 116.05458832 C48.22327716 119.62364948 48.25551416 123.19246764 48.27099609 126.76171875 C48.2862298 130.21148889 48.32079137 133.66059053 48.36830902 137.11006165 C48.39019091 139.05516362 48.39246796 141.00045457 48.39434814 142.94567871 C48.51091323 150.04317089 48.98850779 155.04580453 53 161 C58.26908975 164.24132602 64.45857375 164.65124962 70.5 165.1875 C71.73363281 165.3102832 71.73363281 165.3102832 72.9921875 165.43554688 C74.99385775 165.63338638 76.99681953 165.81808724 79 166 C79 169.3 79 172.6 79 176 C52.27 176 25.54 176 -2 176 C-2 172.7 -2 169.4 -2 166 C-0.90300781 165.82984375 0.19398437 165.6596875 1.32421875 165.484375 C2.77878037 165.24038402 4.23320034 164.99554755 5.6875 164.75 C6.40873047 164.64042969 7.12996094 164.53085938 7.87304688 164.41796875 C12.58014277 163.60121238 15.49874399 162.46139352 19 159 C22.82911962 151.9161287 22.14856577 143.250202 22.14526367 135.44018555 C22.14862228 134.29455139 22.1519809 133.14891724 22.15544128 131.96856689 C22.16491955 128.19127307 22.16689283 124.41402372 22.16796875 120.63671875 C22.17118347 118.0026701 22.1745477 115.36862164 22.17805481 112.73457336 C22.18443871 107.216031 22.18593844 101.69750063 22.18530273 96.17895508 C22.18470249 89.82093176 22.19524815 83.46299344 22.2110464 77.10499161 C22.22575283 70.96527368 22.2292893 64.82559621 22.22869301 58.68586159 C22.22987019 56.08445705 22.23427722 53.48305182 22.24202538 50.88165855 C22.25186459 47.23703408 22.24893158 43.5926263 22.24291992 39.94799805 C22.24853943 38.88221024 22.25415894 37.81642242 22.25994873 36.71833801 C22.22843368 29.16796632 22.1619392 20.59063347 18 14 C12.20138885 11.30778768 6.27532709 10.09303853 0 9 C0 6.03 0 3.06 0 0 Z M48 12 C48 34.44 48 56.88 48 80 C75.50264099 81.68803394 75.50264099 81.68803394 99 70 C105.33611623 63.66388377 107.34583125 56.45046742 107.46801758 47.65478516 C107.45794678 46.81995605 107.44787598 45.98512695 107.4375 45.125 C107.43065186 44.25020996 107.42380371 43.37541992 107.41674805 42.47412109 C107.20837745 34.06593822 105.36041845 27.7488999 100.875 20.625 C90.15136523 10.83385521 76.1798453 10.66296063 62.375 10.8125 C61.20582031 10.81314453 60.03664063 10.81378906 58.83203125 10.81445312 C53.24244608 10.57089934 53.24244608 10.57089934 48 12 Z " fill="#3A4D31" transform="translate(1260,1101)"/>
<path d="M0 0 C1.0725 0.763125 2.145 1.52625 3.25 2.3125 C9.39041216 8.31335734 12.51908788 14.92805473 13.3359375 23.54296875 C13.51619453 40.36094958 8.18401176 49.68608073 -3.1875 61.5 C-8.71657162 66.94459969 -14.66608444 71.52314869 -21 76 C-14.0934227 85.28466618 -7.09856505 94.48932376 0.04052734 103.59667969 C4.03297606 108.70567017 7.86129526 113.89048401 11.546875 119.2265625 C12.02640625 119.81179688 12.5059375 120.39703125 13 121 C13.66 121 14.32 121 15 121 C16.38293067 119.5387894 16.38293067 119.5387894 17.7578125 117.58984375 C18.29752686 116.85435303 18.83724121 116.1188623 19.39331055 115.36108398 C19.96476807 114.56130127 20.53622559 113.76151855 21.125 112.9375 C21.70741455 112.12418213 22.2898291 111.31086426 22.88989258 110.47290039 C33.29827386 95.90563133 33.29827386 95.90563133 38 79 C36.84074462 76.33822159 36.84074462 76.33822159 34 75 C30.99995505 74.10976368 28.09423753 73.54604192 25 73 C25 70.03 25 67.06 25 64 C42.49 64 59.98 64 78 64 C78 66.97 78 69.94 78 73 C75.4328022 74.2835989 73.09600526 74.43374059 70.25 74.8125 C60.93672614 76.38688677 57.60998884 80.35511511 52.27832031 87.77026367 C48.27727766 93.44212321 44.38450189 99.18547907 40.5 104.9375 C39.68896394 106.13487528 38.87776647 107.33214123 38.06640625 108.52929688 C36.47690192 110.87465698 34.89477529 113.22477279 33.31640625 115.57763672 C31.77021838 117.87720676 30.19312604 120.15054788 28.58984375 122.41064453 C27.84863281 123.4726709 27.10742188 124.53469727 26.34375 125.62890625 C25.67537109 126.56935791 25.00699219 127.50980957 24.31835938 128.47875977 C22.79061087 130.85205308 22.79061087 130.85205308 23.18383789 133.18994141 C27.89838328 143.64571152 39.84010891 150.96535987 49.9921875 155.2734375 C56.36093846 157.57808279 63.03779994 158.34137361 69.3125 155.5 C72.66564401 152.38079627 74.80950376 148.99329403 77 145 C78.98 145.33 80.96 145.66 83 146 C84.40267332 150.20801997 83.05082768 152.38640703 81.3671875 156.36328125 C77.69988634 163.43593349 71.96034181 169.31494271 64.34375 171.90234375 C51.29170519 175.5522068 39.76798607 174.58909157 27.625 168.5 C21.83856518 165.19109044 16.92508703 160.97700867 11.9453125 156.5859375 C9.35202207 154.30906978 6.7126162 152.13205627 4 150 C3.44054688 150.556875 2.88109375 151.11375 2.3046875 151.6875 C-12.58247876 165.85663573 -31.51685419 173.76887806 -52.125 174.375 C-65.46700553 173.94111364 -79.42896756 170.12069198 -89.40625 160.828125 C-98.33829111 150.58254843 -100.95068528 140.32158818 -100.19091797 126.93896484 C-99.31362662 118.02918489 -94.67114876 111.59146676 -89 105 C-88.40445313 104.19691406 -87.80890625 103.39382813 -87.1953125 102.56640625 C-84.57197479 99.49962178 -81.62282514 97.16735516 -78.375 94.8125 C-77.73344971 94.34416748 -77.09189941 93.87583496 -76.4309082 93.39331055 C-56.22041194 79 -56.22041194 79 -50 79 C-50.37511719 78.35675781 -50.75023438 77.71351562 -51.13671875 77.05078125 C-61.02383 59.59268305 -66.05518774 41.47231789 -60.8125 21.625 C-57.21392095 11.28125828 -50.9380085 2.46071982 -41.25 -2.8125 C-28.16463924 -8.74610203 -11.86299512 -8.75723245 0 0 Z M-35 11 C-41.7550046 19.37296978 -40.75104931 30.87822916 -40 41 C-38.67876932 50.14764267 -34.78313261 58.18755008 -30 66 C-20.85222187 62.07952366 -15.1059423 53.35496958 -11.05859375 44.6640625 C-8.00179482 36.97130653 -7.48191663 27.3054761 -10.25 19.4375 C-13.30655304 13.43355652 -15.70420456 10.70613081 -22 8.48046875 C-26.800102 7.32731925 -30.96314226 8.3150202 -35 11 Z M-59.25 101.625 C-66.6575003 109.24515581 -71.92432845 119.37877719 -72.3125 130.125 C-72.1920455 138.15529982 -69.16630541 145.73709024 -63.64453125 151.56640625 C-55.74992852 158.4483996 -46.99900674 158.63447941 -37.02587891 158.17919922 C-24.20949078 157.04552497 -12.62857988 148.93202625 -3 141 C-3.35481445 140.52908936 -3.70962891 140.05817871 -4.07519531 139.57299805 C-7.41115566 135.1364309 -10.71415543 130.67716547 -13.99731445 126.20141602 C-19.47103034 118.74072372 -24.99745416 111.33254249 -30.671875 104.0234375 C-32.32697826 101.87402488 -33.96223909 99.7174711 -35.578125 97.5390625 C-35.99537842 96.97695068 -36.41263184 96.41483887 -36.8425293 95.83569336 C-37.99273511 94.28175311 -39.13907206 92.72495132 -40.28515625 91.16796875 C-41.13400391 90.09482422 -41.13400391 90.09482422 -42 89 C-47.29338702 89 -55.52823593 98.17193472 -59.25 101.625 Z " fill="#3C4E32" transform="translate(2159,1105)"/>
<path d="M0 0 C10.67586577 -0.0699438 21.35167577 -0.12303433 32.02772522 -0.15543652 C36.9866656 -0.17099894 41.9454476 -0.19206193 46.90429688 -0.22631836 C51.70243861 -0.25925184 56.50042937 -0.27692358 61.29867554 -0.28463173 C63.11642834 -0.29011494 64.93417421 -0.30081938 66.75186157 -0.31719017 C88.10826984 -0.50163757 108.42306638 2.27727806 124.8125 17.3125 C132.47430162 25.31206085 133.47927681 35.32045497 133.26953125 45.8828125 C132.85269296 54.83970222 129.44630883 61.60647875 123.25 68.0078125 C115.69183659 74.69993635 106.23961521 78.24557422 97 82 C97.54301758 82.08975098 98.08603516 82.17950195 98.64550781 82.27197266 C115.08967384 85.06601949 126.91450307 88.9582911 139 101 C139.68707031 101.62648438 140.37414062 102.25296875 141.08203125 102.8984375 C143.37632496 105.41234792 144.70084392 107.94260961 146.1875 111 C146.95126953 112.546875 146.95126953 112.546875 147.73046875 114.125 C151.56982588 122.81966722 151.46130164 134.86064127 148.5 143.875 C142.42780839 157.81776749 132.20061703 166.18353981 118.41015625 171.9921875 C109.95936072 174.48967346 101.21837025 175.33111846 92.44140625 175.62109375 C90.88432701 175.67770424 90.88432701 175.67770424 89.29579163 175.73545837 C72.14164926 176.27184562 54.96788766 176.10953081 37.80773926 176.06866455 C32.96623175 176.05826621 28.12471868 176.05383228 23.28320312 176.04882812 C13.8554546 176.03823894 4.42773008 176.02126893 -5 176 C-5 172.7 -5 169.4 -5 166 C-4.01 165.90203125 -3.02 165.8040625 -2 165.703125 C8.69770074 164.81287391 8.69770074 164.81287391 18 160 C21.43035983 153.14941309 21.42722405 146.82856897 21.38818359 139.26928711 C21.39344055 138.01139877 21.39869751 136.75351044 21.40411377 135.45750427 C21.41771656 132.02777591 21.41251853 128.59832019 21.40297651 125.16858745 C21.39534484 121.56840362 21.40243507 117.96824206 21.40713501 114.36805725 C21.4125817 108.32500038 21.40542887 102.28205377 21.39111328 96.23901367 C21.37478139 89.26453509 21.38008344 82.29031957 21.3965925 75.31584734 C21.41022963 69.31305573 21.4121164 63.31034306 21.40427649 57.30754095 C21.39961312 53.72866956 21.39893826 50.14992161 21.40888596 46.57105827 C21.41920352 42.58098779 21.40488204 38.59136722 21.38818359 34.60131836 C21.39425629 33.42345764 21.40032898 32.24559692 21.40658569 31.03204346 C21.35351723 24.18226299 21.20008664 18.31091215 16.1953125 13.1328125 C13.42459492 11.70308279 10.96037147 11.29194209 7.875 10.875 C2.1559322 10.0779661 2.1559322 10.0779661 0 9 C0 6.03 0 3.06 0 0 Z M47 13 C46.56001115 15.78796358 46.56001115 15.78796358 46.65942383 19.10205078 C46.65965042 20.38322784 46.65987701 21.66440491 46.66011047 22.98440552 C46.67543159 24.3880447 46.6910796 25.79168034 46.70703125 27.1953125 C46.71262562 28.62734535 46.71689647 30.05938393 46.71989441 31.49142456 C46.73135587 35.26287656 46.76083376 39.03398265 46.79400635 42.80529785 C46.8246795 46.65270304 46.83839382 50.50016406 46.85351562 54.34765625 C46.88570262 61.8985953 46.93691416 69.44924921 47 77 C51.10410468 77.05888242 55.20809827 77.09388921 59.3125 77.125 C60.46041016 77.14175781 61.60832031 77.15851563 62.79101562 77.17578125 C75.47564453 77.24764884 87.40577128 76.06121601 97 67 C103.53973959 58.40491368 104.60031105 48.4991237 103.75390625 37.92578125 C102.44180223 29.60030708 99.88029082 22.64271294 93.1171875 17.31640625 C83.14890421 11.11841461 72.05725905 10.82006471 60.6875 10.8125 C59.69943359 10.80025391 58.71136719 10.78800781 57.69335938 10.77539062 C56.74654297 10.77345703 55.79972656 10.77152344 54.82421875 10.76953125 C53.96916748 10.76542236 53.11411621 10.76131348 52.2331543 10.75708008 C49.71410847 10.85731153 49.71410847 10.85731153 47 13 Z M47 89 C46.92357835 96.64967407 46.87124451 104.29924869 46.83520508 111.94921875 C46.82017169 114.54854003 46.79973954 117.14783617 46.77368164 119.74707031 C46.73705899 123.49550605 46.72021848 127.24360472 46.70703125 130.9921875 C46.69154739 132.14363251 46.67606354 133.29507751 46.66011047 134.48141479 C46.65838062 142.8819638 47.63050815 150.1226497 52.0625 157.375 C60.88991005 165.26332388 72.72857808 165.51296754 84 165 C94.05403041 164.20660303 104.37712364 161.32029322 111.5 153.75 C118.13482583 144.78613501 119.83021591 134.33623482 118.59375 123.41015625 C116.60773859 112.52255796 112.72123613 104.01745694 103.52734375 97.53125 C89.68378454 89.14380763 75.1761483 88.87929576 59.4453125 88.95703125 C57.64525757 88.96168396 57.64525757 88.96168396 55.80883789 88.96643066 C52.87253351 88.97446933 49.93627963 88.98573614 47 89 Z " fill="#3A4C30" transform="translate(27,1101)"/>
<path d="M0 0 C23.1 0 46.2 0 70 0 C70 2.97 70 5.94 70 9 C68.95199219 9.20496094 67.90398437 9.40992188 66.82421875 9.62109375 C65.44529231 9.89312686 64.06638717 10.16526791 62.6875 10.4375 C61.99720703 10.57220703 61.30691406 10.70691406 60.59570312 10.84570312 C57.65710993 11.42774332 54.84543315 12.05152228 52 13 C48.34261435 20.89946086 48.61065541 28.79387229 48.70703125 37.31640625 C48.71263717 38.78327497 48.71690255 40.25014937 48.71989441 41.71702576 C48.73126499 45.54920376 48.76066335 49.38103233 48.79400635 53.21307373 C48.82487677 57.13483963 48.83843575 61.05666284 48.85351562 64.97851562 C48.885542 72.65250183 48.93664192 80.32620167 49 88 C50.41407255 86.43999046 51.82650885 84.87849768 53.23828125 83.31640625 C54.02501221 82.44701416 54.81174316 81.57762207 55.62231445 80.68188477 C59.08630331 76.7747159 62.36310388 72.72505583 65.64697266 68.66650391 C68.37455909 65.30697576 71.12526227 61.96640185 73.875 58.625 C74.77581299 57.53022339 74.77581299 57.53022339 75.69482422 56.41333008 C79.36887184 51.95637811 83.0727019 47.52688038 86.8125 43.125 C96.01726731 32.36279125 96.01726731 32.36279125 104.625 21.125 C105.11226562 20.44695312 105.59953125 19.76890625 106.1015625 19.0703125 C107.41208163 16.58924433 107.41208163 16.58924433 106 12 C102.37 11.01 98.74 10.02 95 9 C95 6.03 95 3.06 95 0 C113.48 0 131.96 0 151 0 C151 2.97 151 5.94 151 9 C150.23816406 9.07476563 149.47632813 9.14953125 148.69140625 9.2265625 C132.02635099 11.34870437 122.24744524 23.6992844 112.24609375 36.25 C109.92195569 39.09555338 107.49007356 41.79890326 105 44.5 C100.93602375 48.91464293 97.13174425 53.4738317 93.38671875 58.16015625 C91.62482857 60.25654604 89.85860996 62.22268341 87.95703125 64.18359375 C87.44519287 64.71605713 86.93335449 65.24852051 86.40600586 65.79711914 C85.40532373 66.82843928 84.39216677 67.84783765 83.36547852 68.85327148 C81.79520657 70.41216696 81.79520657 70.41216696 80 73 C80.0864424 76.53396874 80.62737345 77.60479002 83.0625 80.1875 C83.701875 80.785625 84.34125 81.38375 85 82 C85 82.66 85 83.32 85 84 C85.66 84 86.32 84 87 84 C88.33984375 85.51171875 88.33984375 85.51171875 89.9375 87.6875 C92.96484177 91.69668234 96.11428211 95.55643115 99.375 99.375 C103.5441525 104.26749585 107.63927206 109.21216547 111.6953125 114.19921875 C114.2203292 117.26775599 116.79477805 120.29045922 119.375 123.3125 C123.24528876 127.8490749 126.97143153 132.47495403 130.625 137.1875 C134.5599729 142.26082681 138.65870294 147.10480672 143.02734375 151.81640625 C144.43899048 153.37900135 145.79142383 154.99589951 147.1015625 156.64453125 C152.61836681 163.48945511 159.69843698 164.3741746 168 166 C168 169.3 168 172.6 168 176 C144.9 176 121.8 176 98 176 C98 172.7 98 169.4 98 166 C98.83144531 165.87882812 99.66289063 165.75765625 100.51953125 165.6328125 C101.60621094 165.46523437 102.69289063 165.29765625 103.8125 165.125 C104.89144531 164.96257812 105.97039062 164.80015625 107.08203125 164.6328125 C110.17321793 164.14867662 110.17321793 164.14867662 113 162 C112.52368823 152.71192051 105.1399045 145.84240046 99.37475586 139.14135742 C96.03681474 135.25667013 92.82814518 131.29547897 89.6875 127.25 C84.88570222 121.07189075 79.93126365 115.03018474 74.94165039 109.00317383 C70.86653126 104.07349316 66.86359378 99.09820081 63 94 C62.27329102 94.7331543 61.54658203 95.46630859 60.79785156 96.22167969 C59.10164511 97.90604526 57.36720632 99.55448896 55.56933594 101.12988281 C49.5064687 107.1623216 48.18297381 111.85696012 48.015625 120.234375 C48.01400855 123.0988478 48.06391102 125.95390532 48.15625 128.81689453 C48.25025553 131.75799456 48.27923495 134.69426028 48.296875 137.63671875 C48.32437391 139.5234959 48.35549778 141.41022445 48.390625 143.296875 C48.40337463 144.16681091 48.41612427 145.03674683 48.42926025 145.93304443 C48.65440227 152.37625978 49.57900594 157.57900594 54.3125 162.3125 C59.45819815 165.37886232 66.17382632 165.39343945 72 166 C72 169.3 72 172.6 72 176 C47.58 176 23.16 176 -2 176 C-2 172.7 -2 169.4 -2 166 C-0.81921875 165.82984375 0.3615625 165.6596875 1.578125 165.484375 C3.13555121 165.24044077 4.69283585 164.9956015 6.25 164.75 C7.02730469 164.64042969 7.80460938 164.53085938 8.60546875 164.41796875 C13.26623738 163.66109179 16.03072918 162.95649641 19 159 C22.70494421 151.78510865 22.14863487 143.44005195 22.14526367 135.54785156 C22.14862228 134.41357727 22.1519809 133.27930298 22.15544128 132.11065674 C22.16491961 128.37063493 22.16689289 124.63065806 22.16796875 120.890625 C22.17118369 118.28139223 22.17454795 115.67215964 22.17805481 113.06292725 C22.18443896 107.59565948 22.18593845 102.12840381 22.18530273 96.66113281 C22.1847028 90.36561311 22.19524223 84.07017932 22.2110464 77.77468133 C22.22576396 71.69263184 22.22928899 65.61062318 22.22869301 59.52855682 C22.2298693 56.95309855 22.2342713 54.37763956 22.24202538 51.80219269 C22.25187843 48.19129921 22.24892608 44.58062394 22.24291992 40.96972656 C22.24853943 39.91688477 22.25415894 38.86404297 22.25994873 37.77929688 C22.32552845 24.60396867 22.32552845 24.60396867 17 13 C13.58873697 10.86597732 10.19706763 10.42758947 6.25 9.875 C5.07953125 9.70742187 3.9090625 9.53984375 2.703125 9.3671875 C1.36507812 9.18542969 1.36507812 9.18542969 0 9 C0 6.03 0 3.06 0 0 Z " fill="#3B4D31" transform="translate(646,1101)"/>
<path d="M0 0 C43.56 0 87.12 0 132 0 C133.12754731 6.76528384 133.12754731 6.76528384 133.31640625 10.1796875 C133.35838135 10.93660889 133.40035645 11.69353027 133.44360352 12.47338867 C133.48283936 13.26592041 133.5220752 14.05845215 133.5625 14.875 C133.6049585 15.69911377 133.64741699 16.52322754 133.69116211 17.37231445 C134.06675449 25.25219722 134.09791273 33.11258564 134 41 C131.03 41 128.06 41 125 41 C124.84144531 40.2265625 124.68289063 39.453125 124.51953125 38.65625 C122.3871601 29.13715668 119.6016084 21.91169346 111.33984375 16.25 C93.55728164 6.75013376 66.05727624 11 48 11 C48 33.11 48 55.22 48 78 C67.2049098 77.52711257 67.2049098 77.52711257 84 69 C87.91385717 63.78532733 88.60178487 58.37144204 89 52 C91.97 52 94.94 52 98 52 C98 72.79 98 93.58 98 115 C95.03 115 92.06 115 89 115 C88.83564453 113.78763672 88.83564453 113.78763672 88.66796875 112.55078125 C88.50941406 111.48214844 88.35085938 110.41351562 88.1875 109.3125 C88.03667969 108.25675781 87.88585938 107.20101563 87.73046875 106.11328125 C86.65728755 101.53934856 85.01836863 98.82439365 81.375 95.875 C73.86271862 91.70151035 66.42942481 90.45663348 57.9375 89.8125 C56.97650391 89.73064453 56.01550781 89.64878906 55.02539062 89.56445312 C52.68422227 89.36644386 50.34272368 89.17848408 48 89 C48.03817467 96.68513076 48.09770626 104.36985047 48.18390274 112.05458832 C48.22327716 115.62364948 48.25551416 119.19246764 48.27099609 122.76171875 C48.2862298 126.21148889 48.32079137 129.66059053 48.36830902 133.11006165 C48.39019091 135.05516362 48.39246796 137.00045457 48.39434814 138.94567871 C48.51151765 146.07997298 49.10159732 150.95633862 53 157 C62.86649202 165.53617849 79.82278492 164.60010916 92 164 C102.92807854 163.13096791 114.07608502 161.73318475 122.40625 153.953125 C128.01434082 147.08046468 130.76343911 138.44923003 133 130 C136.3 130 139.6 130 143 130 C142.88154852 133.16701848 142.75513203 136.33345382 142.625 139.5 C142.5940625 140.34820313 142.563125 141.19640625 142.53125 142.0703125 C142.05145809 153.4253876 140.94646968 164.64236389 140 176 C93.14 176 46.28 176 -2 176 C-2 172.7 -2 169.4 -2 166 C-0.90300781 165.82984375 0.19398438 165.6596875 1.32421875 165.484375 C2.77878037 165.24038402 4.23320034 164.99554755 5.6875 164.75 C6.40873047 164.64042969 7.12996094 164.53085938 7.87304688 164.41796875 C12.58014277 163.60121238 15.49874399 162.46139352 19 159 C22.82911962 151.9161287 22.14856577 143.250202 22.14526367 135.44018555 C22.14862228 134.29455139 22.1519809 133.14891724 22.15544128 131.96856689 C22.16491955 128.19127307 22.16689283 124.41402372 22.16796875 120.63671875 C22.17118347 118.0026701 22.1745477 115.36862164 22.17805481 112.73457336 C22.18443871 107.216031 22.18593844 101.69750063 22.18530273 96.17895508 C22.18470249 89.82093176 22.19524815 83.46299344 22.2110464 77.10499161 C22.22575283 70.96527368 22.2292893 64.82559621 22.22869301 58.68586159 C22.22987019 56.08445705 22.23427722 53.48305182 22.24202538 50.88165855 C22.25186459 47.23703408 22.24893158 43.5926263 22.24291992 39.94799805 C22.24853943 38.88221024 22.25415894 37.81642242 22.25994873 36.71833801 C22.22843368 29.16796632 22.1619392 20.59063347 18 14 C12.20138885 11.30778768 6.27532709 10.09303853 0 9 C0 6.03 0 3.06 0 0 Z " fill="#3C4E32" transform="translate(959,1101)"/>
<path d="M0 0 C43.56 0 87.12 0 132 0 C133.12754731 6.76528384 133.12754731 6.76528384 133.31640625 10.1796875 C133.35838135 10.93660889 133.40035645 11.69353027 133.44360352 12.47338867 C133.48283936 13.26592041 133.5220752 14.05845215 133.5625 14.875 C133.6049585 15.69911377 133.64741699 16.52322754 133.69116211 17.37231445 C134.06675449 25.25219722 134.09791273 33.11258564 134 41 C131.03 41 128.06 41 125 41 C124.84144531 40.2265625 124.68289062 39.453125 124.51953125 38.65625 C122.3871601 29.13715668 119.6016084 21.91169346 111.33984375 16.25 C93.55728164 6.75013376 66.05727624 11 48 11 C48 33.11 48 55.22 48 78 C67.2049098 77.52711257 67.2049098 77.52711257 84 69 C87.91385717 63.78532733 88.60178487 58.37144204 89 52 C91.97 52 94.94 52 98 52 C98 72.79 98 93.58 98 115 C95.03 115 92.06 115 89 115 C88.83564453 113.78763672 88.83564453 113.78763672 88.66796875 112.55078125 C88.50941406 111.48214844 88.35085937 110.41351562 88.1875 109.3125 C88.03667969 108.25675781 87.88585938 107.20101563 87.73046875 106.11328125 C86.65728755 101.53934856 85.01836863 98.82439365 81.375 95.875 C73.86271862 91.70151035 66.42942481 90.45663348 57.9375 89.8125 C56.97650391 89.73064453 56.01550781 89.64878906 55.02539062 89.56445312 C52.68422227 89.36644386 50.34272368 89.17848408 48 89 C48.03817467 96.68513076 48.09770626 104.36985047 48.18390274 112.05458832 C48.22327716 115.62364948 48.25551416 119.19246764 48.27099609 122.76171875 C48.2862298 126.21148889 48.32079137 129.66059053 48.36830902 133.11006165 C48.39019091 135.05516362 48.39246796 137.00045457 48.39434814 138.94567871 C48.51151765 146.07997298 49.10159732 150.95633862 53 157 C62.86649202 165.53617849 79.82278492 164.60010916 92 164 C102.92807854 163.13096791 114.07608502 161.73318475 122.40625 153.953125 C128.01434082 147.08046468 130.76343911 138.44923003 133 130 C136.3 130 139.6 130 143 130 C142.56901582 141.62523111 141.98797381 153.21984622 141 164.8125 C140.8755249 166.31502319 140.8755249 166.31502319 140.74853516 167.84790039 C140.66651855 168.77078857 140.58450195 169.69367676 140.5 170.64453125 C140.4278125 171.46284424 140.355625 172.28115723 140.28125 173.12426758 C140 175 140 175 139 176 C137.17772313 176.09643778 135.3516664 176.12187371 133.52684021 176.12025452 C131.74518463 176.12231651 131.74518463 176.12231651 129.92753601 176.12442017 C127.95524773 176.11902725 127.95524773 176.11902725 125.94311523 176.11352539 C124.55382286 176.11324352 123.16453033 176.11340125 121.77523804 176.1139679 C117.99234711 176.11425588 114.20948762 176.10835901 110.42660403 176.10139394 C106.47744323 176.09516055 102.52828178 176.09455661 98.57911682 176.09336853 C91.09574925 176.09025517 83.61239621 176.08204172 76.12903506 176.07201904 C67.61164267 176.06085805 59.0942496 176.05534749 50.57685173 176.05032361 C33.05122606 176.03985911 15.52561457 176.02225958 -2 176 C-2 172.7 -2 169.4 -2 166 C-0.90300781 165.82984375 0.19398438 165.6596875 1.32421875 165.484375 C2.77878037 165.24038402 4.23320034 164.99554755 5.6875 164.75 C6.40873047 164.64042969 7.12996094 164.53085938 7.87304688 164.41796875 C12.58014277 163.60121238 15.49874399 162.46139352 19 159 C22.82911962 151.9161287 22.14856577 143.250202 22.14526367 135.44018555 C22.14862228 134.29455139 22.1519809 133.14891724 22.15544128 131.96856689 C22.16491955 128.19127307 22.16689283 124.41402372 22.16796875 120.63671875 C22.17118347 118.0026701 22.1745477 115.36862164 22.17805481 112.73457336 C22.18443871 107.216031 22.18593844 101.69750063 22.18530273 96.17895508 C22.18470249 89.82093176 22.19524815 83.46299344 22.2110464 77.10499161 C22.22575283 70.96527368 22.2292893 64.82559621 22.22869301 58.68586159 C22.22987019 56.08445705 22.23427722 53.48305182 22.24202538 50.88165855 C22.25186459 47.23703408 22.24893158 43.5926263 22.24291992 39.94799805 C22.24853943 38.88221024 22.25415894 37.81642242 22.25994873 36.71833801 C22.22843368 29.16796632 22.1619392 20.59063347 18 14 C12.20138885 11.30778768 6.27532709 10.09303853 0 9 C0 6.03 0 3.06 0 0 Z " fill="#3C4E32" transform="translate(3520,1101)"/>
<path d="M0 0 C1.37583425 -2.71193322 2.57774787 -5.39385784 3.625 -8.25 C4.07875 -9.4875 4.5325 -10.725 5 -12 C7.31 -12 9.62 -12 12 -12 C13.2369908 -6.02294361 13.34691189 -0.01735038 13.5625 6.0625 C13.6049585 7.20251465 13.64741699 8.3425293 13.69116211 9.51708984 C14.05400204 20.01389584 14.10033289 30.49849093 14 41 C11.03 41 8.06 41 5 41 C4.6596875 40.04480469 4.319375 39.08960938 3.96875 38.10546875 C-1.82977747 22.40910345 -10.28125359 10.5716408 -25.72265625 3.2890625 C-40.6630885 -2.5873888 -56.64913724 -2.78864523 -71.5 3.4765625 C-87.51882212 11.59721538 -95.50462473 24.63553424 -101.09814453 41.20458984 C-104.55519239 52.17565497 -105.35002549 63.122538 -105.31567383 74.55273438 C-105.31252371 76.73358722 -105.33603414 78.91306443 -105.36132812 81.09375 C-105.45574631 101.98384591 -100.74693202 122.32005538 -86.4375 138.25 C-73.9036237 150.1241986 -58.24237032 151.58463647 -41.88671875 151.3125 C-30.84125439 150.89338357 -22.09328378 147.23343747 -13 141 C-12.113125 140.4225 -11.22625 139.845 -10.3125 139.25 C-1.09553112 130.28213838 3.79159258 117.92382103 8 106 C11.3 106 14.6 106 18 106 C18 125.14 18 144.28 18 164 C15.36 164 12.72 164 10 164 C7.47041916 158.4590134 5.66153012 152.85659906 4 147 C3.41734375 147.43570312 2.8346875 147.87140625 2.234375 148.3203125 C-18.64049058 163.48412995 -42.57920387 168.34566318 -68 165.3125 C-90.46316988 161.63252678 -109.17018041 151.32094657 -123 133 C-138.39347563 110.9766611 -140.76416092 82.44802347 -136.33764648 56.59130859 C-133.13420778 39.44761141 -125.83516581 23.85394382 -114 11 C-113.46117188 10.36964844 -112.92234375 9.73929688 -112.3671875 9.08984375 C-100.46549138 -4.03790649 -82.0537751 -11.26247368 -65 -14 C-64.11183594 -14.14308594 -63.22367188 -14.28617188 -62.30859375 -14.43359375 C-39.34519579 -17.2733422 -20.16371553 -10.19693749 0 0 Z " fill="#3B4D31" transform="translate(2740,1113)"/>
<path d="M0 0 C1.51400391 0.01740234 1.51400391 0.01740234 3.05859375 0.03515625 C4.07050781 0.04417969 5.08242187 0.05320312 6.125 0.0625 C6.90746094 0.07410156 7.68992187 0.08570313 8.49609375 0.09765625 C15.01709886 15.69397723 21.4212592 31.3331907 27.68359375 47.03515625 C34.09828451 63.11042321 40.52799425 79.17959533 46.9881506 95.23664761 C48.36780911 98.66593159 49.74638056 102.09564135 51.12191772 105.52658081 C58.36622579 123.63867969 58.36622579 123.63867969 66.015625 141.58203125 C66.32028687 142.27791351 66.62494873 142.97379578 66.93884277 143.69076538 C70.36604079 151.3304707 74.48148974 158.32046904 81.49609375 163.09765625 C84.82213554 164.20664814 84.82213554 164.20664814 88.30859375 164.84765625 C90.05076172 165.21117187 90.05076172 165.21117187 91.828125 165.58203125 C92.70855469 165.7521875 93.58898438 165.92234375 94.49609375 166.09765625 C94.49609375 169.39765625 94.49609375 172.69765625 94.49609375 176.09765625 C69.74609375 176.09765625 44.99609375 176.09765625 19.49609375 176.09765625 C19.49609375 172.79765625 19.49609375 169.49765625 19.49609375 166.09765625 C20.61628906 165.90429688 21.73648438 165.7109375 22.890625 165.51171875 C24.36334724 165.24906765 25.83599994 164.98602642 27.30859375 164.72265625 C28.04658203 164.59632813 28.78457031 164.47 29.54492188 164.33984375 C33.10204021 163.69602143 35.45103459 163.12769569 38.49609375 161.09765625 C42.27644013 145.72424764 30.48050917 126.05713635 25.49609375 113.09765625 C-4.20390625 112.60265625 -4.20390625 112.60265625 -34.50390625 112.09765625 C-34.83390625 113.74765625 -35.16390625 115.39765625 -35.50390625 117.09765625 C-36.13302235 118.9295192 -36.80127671 120.74822834 -37.5 122.5546875 C-37.89380859 123.58529297 -38.28761719 124.61589844 -38.69335938 125.67773438 C-39.52094624 127.8211714 -40.34906548 129.96440294 -41.17773438 132.10742188 C-45.41307166 143.19065278 -45.41307166 143.19065278 -46.81640625 154.91015625 C-46.83316406 155.82410156 -46.84992187 156.73804688 -46.8671875 157.6796875 C-46.67324995 160.09102371 -46.67324995 160.09102371 -45.40234375 161.81640625 C-42.68205707 163.65231989 -40.01624631 164.11984297 -36.81640625 164.78515625 C-35.63691406 165.03652344 -34.45742187 165.28789063 -33.2421875 165.546875 C-32.33855469 165.72863281 -31.43492187 165.91039062 -30.50390625 166.09765625 C-30.50390625 169.39765625 -30.50390625 172.69765625 -30.50390625 176.09765625 C-48.98390625 176.09765625 -67.46390625 176.09765625 -86.50390625 176.09765625 C-86.50390625 172.79765625 -86.50390625 169.49765625 -86.50390625 166.09765625 C-85.21806641 165.76894531 -85.21806641 165.76894531 -83.90625 165.43359375 C-75.86636793 163.20381811 -69.64745384 161.33590958 -65.21533203 153.95043945 C-60.32395439 144.32497765 -56.53389852 134.28307852 -52.64559937 124.22171021 C-50.28337793 118.1143197 -47.89869738 112.01571479 -45.51171875 105.91796875 C-45.25019957 105.24955774 -44.98868038 104.58114674 -44.71923637 103.89248085 C-36.90306039 83.92726812 -28.89392036 64.03882284 -20.89251328 44.14731216 C-19.68875096 41.15355253 -18.48623676 38.15929442 -17.28408813 35.16488647 C-15.37836558 30.41833795 -13.46994276 25.67288469 -11.55925369 20.92833328 C-10.84587213 19.15594696 -10.13330706 17.38323177 -9.42158127 15.6101799 C-8.44390481 13.17540372 -7.46301074 10.74194978 -6.48120117 8.30883789 C-6.19203732 7.58678004 -5.90287348 6.86472219 -5.60494709 6.12078381 C-3.1778381 0.12394064 -3.1778381 0.12394064 0 0 Z M-3.50390625 36.09765625 C-7.38752816 43.3852128 -10.26426829 51.01738921 -13.19140625 58.72265625 C-14.24949795 61.49208199 -15.31123141 64.26009392 -16.375 67.02734375 C-16.77025375 68.0559552 -16.77025375 68.0559552 -17.17349243 69.10534668 C-19.95633743 76.31851529 -22.898115 83.46522104 -25.9128418 90.58447266 C-26.42971558 91.82076416 -26.42971558 91.82076416 -26.95703125 93.08203125 C-27.40804199 94.14502441 -27.40804199 94.14502441 -27.86816406 95.22949219 C-28.66498625 97.24210319 -28.66498625 97.24210319 -28.50390625 100.09765625 C-12.00390625 100.09765625 4.49609375 100.09765625 21.49609375 100.09765625 C13.69933183 78.68255019 5.68753756 57.36439534 -2.50390625 36.09765625 C-2.83390625 36.09765625 -3.16390625 36.09765625 -3.50390625 36.09765625 Z " fill="#3C4F33" transform="translate(2991.50390625,1100.90234375)"/>
<path d="M0 0 C1.51400391 0.01740234 1.51400391 0.01740234 3.05859375 0.03515625 C4.07050781 0.04417969 5.08242188 0.05320312 6.125 0.0625 C6.90746094 0.07410156 7.68992187 0.08570313 8.49609375 0.09765625 C15.01709886 15.69397723 21.4212592 31.3331907 27.68359375 47.03515625 C34.09828451 63.11042321 40.52799425 79.17959533 46.9881506 95.23664761 C48.36780911 98.66593159 49.74638056 102.09564135 51.12191772 105.52658081 C58.36622579 123.63867969 58.36622579 123.63867969 66.015625 141.58203125 C66.32028687 142.27791351 66.62494873 142.97379578 66.93884277 143.69076538 C70.36604079 151.3304707 74.48148974 158.32046904 81.49609375 163.09765625 C84.82213554 164.20664814 84.82213554 164.20664814 88.30859375 164.84765625 C90.05076172 165.21117187 90.05076172 165.21117187 91.828125 165.58203125 C92.70855469 165.7521875 93.58898437 165.92234375 94.49609375 166.09765625 C94.49609375 169.39765625 94.49609375 172.69765625 94.49609375 176.09765625 C69.74609375 176.09765625 44.99609375 176.09765625 19.49609375 176.09765625 C19.49609375 172.79765625 19.49609375 169.49765625 19.49609375 166.09765625 C20.61628906 165.90429688 21.73648438 165.7109375 22.890625 165.51171875 C24.36334724 165.24906765 25.83599994 164.98602642 27.30859375 164.72265625 C28.04658203 164.59632813 28.78457031 164.47 29.54492188 164.33984375 C33.10204021 163.69602143 35.45103459 163.12769569 38.49609375 161.09765625 C42.27644013 145.72424764 30.48050917 126.05713635 25.49609375 113.09765625 C-4.20390625 112.60265625 -4.20390625 112.60265625 -34.50390625 112.09765625 C-34.83390625 113.74765625 -35.16390625 115.39765625 -35.50390625 117.09765625 C-36.13302235 118.9295192 -36.80127671 120.74822834 -37.5 122.5546875 C-37.89380859 123.58529297 -38.28761719 124.61589844 -38.69335938 125.67773438 C-39.52094624 127.8211714 -40.34906548 129.96440294 -41.17773438 132.10742188 C-45.41307166 143.19065278 -45.41307166 143.19065278 -46.81640625 154.91015625 C-46.83316406 155.82410156 -46.84992188 156.73804688 -46.8671875 157.6796875 C-46.67324995 160.09102371 -46.67324995 160.09102371 -45.40234375 161.81640625 C-42.68205707 163.65231989 -40.01624631 164.11984297 -36.81640625 164.78515625 C-35.63691406 165.03652344 -34.45742188 165.28789063 -33.2421875 165.546875 C-32.33855469 165.72863281 -31.43492187 165.91039062 -30.50390625 166.09765625 C-30.50390625 169.39765625 -30.50390625 172.69765625 -30.50390625 176.09765625 C-48.98390625 176.09765625 -67.46390625 176.09765625 -86.50390625 176.09765625 C-86.50390625 172.79765625 -86.50390625 169.49765625 -86.50390625 166.09765625 C-85.21806641 165.76894531 -85.21806641 165.76894531 -83.90625 165.43359375 C-75.86636793 163.20381811 -69.64745384 161.33590958 -65.21533203 153.95043945 C-60.32395439 144.32497765 -56.53389852 134.28307852 -52.64559937 124.22171021 C-50.28337793 118.1143197 -47.89869738 112.01571479 -45.51171875 105.91796875 C-45.25019957 105.24955774 -44.98868038 104.58114674 -44.71923637 103.89248085 C-36.90306039 83.92726812 -28.89392036 64.03882284 -20.89251328 44.14731216 C-19.68875096 41.15355253 -18.48623676 38.15929442 -17.28408813 35.16488647 C-15.37836558 30.41833795 -13.46994276 25.67288469 -11.55925369 20.92833328 C-10.84587213 19.15594696 -10.13330706 17.38323177 -9.42158127 15.6101799 C-8.44390481 13.17540372 -7.46301074 10.74194978 -6.48120117 8.30883789 C-6.19203732 7.58678004 -5.90287348 6.86472219 -5.60494709 6.12078381 C-3.1778381 0.12394064 -3.1778381 0.12394064 0 0 Z M-3.50390625 36.09765625 C-6.215545 41.36605653 -8.60483121 46.62123935 -10.7109375 52.15625 C-10.99942062 52.90366959 -11.28790375 53.65108917 -11.58512878 54.42115784 C-12.49929637 56.7910707 -13.40823359 59.16294036 -14.31640625 61.53515625 C-15.50785401 64.63901213 -16.70222061 67.74172922 -17.8984375 70.84375 C-18.33786179 71.98667007 -18.33786179 71.98667007 -18.78616333 73.15267944 C-21.19951927 79.39606454 -23.7432077 85.581612 -26.38056946 91.73374939 C-27.62555476 94.68829292 -28.50390625 96.85625831 -28.50390625 100.09765625 C-12.00390625 100.09765625 4.49609375 100.09765625 21.49609375 100.09765625 C13.69933183 78.68255019 5.68753756 57.36439534 -2.50390625 36.09765625 C-2.83390625 36.09765625 -3.16390625 36.09765625 -3.50390625 36.09765625 Z " fill="#3C4F33" transform="translate(406.50390625,1100.90234375)"/>
<path d="M0 0 C43.56 0 87.12 0 132 0 C132.64973298 3.2486649 133.13954962 5.92278215 133.29711914 9.14770508 C133.33708511 9.92813675 133.37705109 10.70856842 133.41822815 11.51264954 C133.45681442 12.3399205 133.4954007 13.16719147 133.53515625 14.01953125 C133.57813339 14.87810226 133.62111053 15.73667328 133.66539001 16.6212616 C133.8012556 19.35151505 133.93194896 22.08198778 134.0625 24.8125 C134.15395524 26.66863666 134.24574833 28.5247567 134.33789062 30.38085938 C134.56250813 34.92038977 134.78248867 39.46012379 135 44 C132.03 44 129.06 44 126 44 C125.70867188 42.9378125 125.41734375 41.875625 125.1171875 40.78125 C122.31830963 30.9654507 119.88007027 22.73484952 110.75 17.125 C102.85553371 12.74938496 93.31679418 12.68732464 84.5234375 12.5859375 C83.58991455 12.56829346 82.6563916 12.55064941 81.69458008 12.5324707 C78.25488532 12.4700834 74.81491958 12.42343017 71.375 12.375 C59.804375 12.189375 59.804375 12.189375 48 12 C48 35.43 48 58.86 48 83 C66.82776621 82.06585178 66.82776621 82.06585178 83 73 C86.68162565 67.42570764 87.98322803 61.52874635 89 55 C91.97 55 94.94 55 98 55 C98 77.11 98 99.22 98 122 C95.03 122 92.06 122 89 122 C88.63648437 120.48019531 88.63648437 120.48019531 88.265625 118.9296875 C87.92769604 117.57797167 87.58911976 116.22641757 87.25 114.875 C87.09273437 114.20984375 86.93546875 113.5446875 86.7734375 112.859375 C85.44052293 107.63024861 83.61880556 102.92225728 79.10546875 99.609375 C78.47253906 99.32578125 77.83960937 99.0421875 77.1875 98.75 C76.56230469 98.45609375 75.93710938 98.1621875 75.29296875 97.859375 C69.08041316 95.5309896 63.13598583 94.52122504 56.5625 93.875 C55.32209961 93.74544922 55.32209961 93.74544922 54.05664062 93.61328125 C52.03833222 93.40328384 50.01923867 93.20085549 48 93 C48.06138513 100.57197491 48.13861555 108.14365031 48.23571491 115.71524906 C48.28031906 119.23161053 48.31959638 122.7478588 48.34643555 126.2644043 C48.37757643 130.313281 48.43236099 134.36154538 48.48828125 138.41015625 C48.49467117 139.66458023 48.5010611 140.91900421 48.50764465 142.21144104 C48.59509066 152.39779967 48.59509066 152.39779967 53.8125 160.8125 C59.25361288 163.76624699 64.82129668 164.49910864 70.875 165.125 C72.050625 165.25455078 72.050625 165.25455078 73.25 165.38671875 C75.16603159 165.5970149 77.0829366 165.79932744 79 166 C79 169.3 79 172.6 79 176 C52.27 176 25.54 176 -2 176 C-2 172.7 -2 169.4 -2 166 C-0.90300781 165.82984375 0.19398438 165.6596875 1.32421875 165.484375 C2.77878037 165.24038402 4.23320034 164.99554755 5.6875 164.75 C6.40873047 164.64042969 7.12996094 164.53085938 7.87304688 164.41796875 C12.58014277 163.60121238 15.49874399 162.46139352 19 159 C22.82911962 151.9161287 22.14856577 143.250202 22.14526367 135.44018555 C22.14862228 134.29455139 22.1519809 133.14891724 22.15544128 131.96856689 C22.16491955 128.19127307 22.16689283 124.41402372 22.16796875 120.63671875 C22.17118347 118.0026701 22.1745477 115.36862164 22.17805481 112.73457336 C22.18443871 107.216031 22.18593844 101.69750063 22.18530273 96.17895508 C22.18470249 89.82093176 22.19524815 83.46299344 22.2110464 77.10499161 C22.22575283 70.96527368 22.2292893 64.82559621 22.22869301 58.68586159 C22.22987019 56.08445705 22.23427722 53.48305182 22.24202538 50.88165855 C22.25186459 47.23703408 22.24893158 43.5926263 22.24291992 39.94799805 C22.24853943 38.88221024 22.25415894 37.81642242 22.25994873 36.71833801 C22.22843368 29.16796632 22.1619392 20.59063347 18 14 C12.20138885 11.30778768 6.27532709 10.09303853 0 9 C0 6.03 0 3.06 0 0 Z " fill="#3B4D31" transform="translate(3231,1101)"/>
<path d="M0 0 C24.09 0 48.18 0 73 0 C73 2.97 73 5.94 73 9 C71.80761719 9.18175781 70.61523438 9.36351562 69.38671875 9.55078125 C67.82020918 9.80404926 66.25380838 10.05799072 64.6875 10.3125 C63.90181641 10.43044922 63.11613281 10.54839844 62.30664062 10.66992188 C61.54931641 10.79560547 60.79199219 10.92128906 60.01171875 11.05078125 C59.31522217 11.16075439 58.61872559 11.27072754 57.90112305 11.3840332 C55.54550708 12.14725641 54.48648864 13.02863432 53 15 C53.1878847 20.11531248 54.62049733 23.80609184 57.0625 28.25 C57.40265137 28.87076416 57.74280273 29.49152832 58.09326172 30.13110352 C63.11767219 39.17866011 68.48745021 48.03490541 73.7890625 56.921875 C77.90316345 63.81843202 81.95944397 70.74760171 86 77.6875 C86.60537598 78.72704834 87.21075195 79.76659668 87.83447266 80.83764648 C89.2237777 83.22463628 90.61236212 85.61204077 92 88 C94.97818851 85.37589393 96.7160959 82.30822866 98.6953125 78.890625 C99.04420029 78.29160873 99.39308807 77.69259247 99.75254822 77.07542419 C100.8810133 75.1360858 102.00308709 73.19313489 103.125 71.25 C104.66627135 68.59406461 106.21018478 65.93966807 107.75390625 63.28515625 C108.12867599 62.63960281 108.50344574 61.99404938 108.88957214 61.32893372 C111.21521785 57.32813351 113.58221367 53.35722432 116.00317383 49.41357422 C125.98386565 33.65567373 125.98386565 33.65567373 131 16 C130.5217702 13.79297033 130.5217702 13.79297033 129 12 C126.14218557 10.86151092 126.14218557 10.86151092 122.875 10.25 C121.77929688 10.00765625 120.68359375 9.7653125 119.5546875 9.515625 C118.71164062 9.34546875 117.86859375 9.1753125 117 9 C117 6.03 117 3.06 117 0 C134.49 0 151.98 0 170 0 C170 2.97 170 5.94 170 9 C169.29875 9.13535156 168.5975 9.27070312 167.875 9.41015625 C153.47058192 12.67855003 147.45852578 23.43012754 139.95263672 35.21435547 C137.94563565 38.46299711 135.9668462 41.72689696 134 45 C133.27227184 46.20475364 132.5444038 47.4094228 131.81640625 48.61401367 C125.78080711 58.62119276 119.85488426 68.69304733 113.97265625 78.79101562 C113.32167969 79.90798828 112.67070313 81.02496094 112 82.17578125 C111.3596582 83.30113281 110.71931641 84.42648437 110.05957031 85.5859375 C108.61257746 87.98455629 107.19032078 90.13989869 105.52636719 92.3671875 C98.15123162 102.60023753 97.77686155 111.90705109 98.15625 124.29052734 C98.25049838 127.39139726 98.27927405 130.48767633 98.296875 133.58984375 C98.32436728 135.58859689 98.35548901 137.58730412 98.390625 139.5859375 C98.40337463 140.49862396 98.41612427 141.41131042 98.42926025 142.35165405 C98.65626303 149.21828963 99.74114807 155.68560979 103.671875 161.453125 C107.02303142 163.67973229 110.31613654 164.15922545 114.25 164.75 C114.99507812 164.87503906 115.74015625 165.00007813 116.5078125 165.12890625 C118.33620503 165.43363834 120.16784304 165.71878521 122 166 C122 169.3 122 172.6 122 176 C97.58 176 73.16 176 48 176 C48 172.7 48 169.4 48 166 C49.09699219 165.84144531 50.19398437 165.68289063 51.32421875 165.51953125 C52.7788179 165.28491848 54.23323607 165.04918177 55.6875 164.8125 C56.7693457 164.66071289 56.7693457 164.66071289 57.87304688 164.50585938 C63.01688414 163.63680924 65.62158657 162.2053875 69 158 C75.18135037 144.09196166 75.92439958 116.49562187 70.78125 102.11865234 C67.6811588 95.27229468 63.53210162 89.1971445 59.1640625 83.10400391 C55.44447571 77.7688475 52.26329145 72.12114008 49 66.5 C47.66841479 64.25937685 46.33508182 62.01979145 45 59.78125 C42.27159038 55.17872732 39.58631155 50.55477366 36.9375 45.90625 C36.60492187 45.32387573 36.27234375 44.74150146 35.9296875 44.14147949 C34.3523337 41.3782108 32.78166677 38.61155879 31.22265625 35.83789062 C23.19601009 20.85296419 23.19601009 20.85296419 10 11 C6.68829512 10.10802218 3.39663104 9.46634074 0 9 C0 6.03 0 3.06 0 0 Z " fill="#3B4E31" transform="translate(1554,1101)"/>
<path d="M0 0 C3.30200257 1.92521603 3.8801639 2.61934416 5.0625 6.375 C5 10 5 10 3.1875 12.6875 C-4.44601309 18.22553891 -13.79717542 20.18876731 -22.85766602 22.29248047 C-24.80286637 22.74774529 -26.7423193 23.22734046 -28.68164062 23.70703125 C-36.92524287 25.6452217 -44.53903678 26.41853195 -53 26 C-53 25.01 -53 24.02 -53 23 C-51.87464844 22.38253906 -50.74929687 21.76507812 -49.58984375 21.12890625 C-41.95568755 16.92255225 -34.37544531 12.6706782 -26.9375 8.125 C-10.43961456 -1.82487751 -10.43961456 -1.82487751 0 0 Z " fill="#435539" transform="translate(3625,1058)"/>
<path d="M0 0 C0.66 0.33 1.32 0.66 2 1 C-6.25 9.25 -14.5 17.5 -23 26 C-23.66 25.67 -24.32 25.34 -25 25 C-17.0225481 16.21470487 -9.11773221 7.62912287 0 0 Z " fill="#717B64" transform="translate(2302,354)"/>
<path d="M0 0 C0.33 0 0.66 0 1 0 C1 13.2 1 26.4 1 40 C-1 39 -1 39 -2.125 35.9375 C-2.41375 34.968125 -2.7025 33.99875 -3 33 C-2.01 33.33 -1.02 33.66 0 34 C0 22.78 0 11.56 0 0 Z " fill="#848B76" transform="translate(2222,516)"/>
<path d="M0 0 C0.66 0.33 1.32 0.66 2 1 C-3.61 6.61 -9.22 12.22 -15 18 C-15.66 17.67 -16.32 17.34 -17 17 C-15.29657414 15.09955869 -13.58752883 13.20471126 -11.875 11.3125 C-11.400625 10.78205078 -10.92625 10.25160156 -10.4375 9.70507812 C-7.18500869 6.12294242 -3.77952775 3.02250068 0 0 Z " fill="#6F7A62" transform="translate(2637,1114)"/>
</svg>
